<svg width="24" height="24" viewBox="0 0 24 24" fill="none" xmlns="http://www.w3.org/2000/svg">
<g clip-path="url(#clip0_8672_1047)">
<path d="M12 24C18.6274 24 24 18.6274 24 12C24 5.37258 18.6274 0 12 0C5.37258 0 0 5.37258 0 12C0 18.6274 5.37258 24 12 24Z" fill="#ED1C24"/>
<path d="M12 0C5.36 0 0 5.36 0 12C0 18.64 5.36 24 12 24V0Z" fill="#009245"/>
<path d="M12 0C10.64 0 9.28 0.24 8 0.72V23.36C10.56 24.32 13.44 24.32 16 23.36V0.72C14.72 0.24 13.36 0 12 0Z" fill="#F0F0F0"/>
</g>
<defs>
<clipPath id="clip0_8672_1047">
<rect width="24" height="24" fill="white"/>
</clipPath>
</defs>
</svg>
