<svg width="24" height="24" viewBox="0 0 24 24" fill="none" xmlns="http://www.w3.org/2000/svg">
<g clip-path="url(#clip0_8672_1058)">
<path d="M23.2023 7.95741H0.797729C2.45275 3.37186 6.84292 0.09375 12 0.09375C17.1571 0.09375 21.5473 3.37186 23.2023 7.95741Z" fill="#ED1C24"/>
<path d="M23.9062 12C23.9062 13.4365 23.652 14.8141 23.1856 16.0889H0.814453C0.348047 14.8141 0.09375 13.4365 0.09375 12C0.09375 10.581 0.341672 9.21937 0.797719 7.95741H23.2023C23.6584 9.21937 23.9062 10.581 23.9062 12Z" fill="#F1F2F2"/>
<path d="M23.1856 16.0889C21.5179 20.6505 17.1397 23.9062 12 23.9062C6.86044 23.9062 2.48217 20.6505 0.814453 16.0889H23.1856Z" fill="#21409A"/>
</g>
<defs>
<clipPath id="clip0_8672_1058">
<rect width="24" height="24" fill="white"/>
</clipPath>
</defs>
</svg>
