<svg width="24" height="24" viewBox="0 0 24 24" fill="none" xmlns="http://www.w3.org/2000/svg">
<g clip-path="url(#clip0_8672_1064)">
<path d="M12.2403 0.239952C18.8679 0.239952 24.2402 5.61226 24.2402 12.2395C24.2402 18.8671 18.8679 24.2406 12.2403 24.2406C5.61306 24.2406 0.240234 18.8672 0.240234 12.2395C0.240321 5.61235 5.61315 0.239952 12.2403 0.239952Z" fill="#D6D4D1"/>
<mask id="mask0_8672_1064" style="mask-type:luminance" maskUnits="userSpaceOnUse" x="0" y="0" width="24" height="24">
<path d="M12.2402 0.533447C18.7056 0.533447 23.9468 5.77469 23.9468 12.2396C23.9468 18.7049 18.7056 23.9462 12.2402 23.9462C5.77485 23.9462 0.533691 18.7049 0.533691 12.2396C0.533691 5.77469 5.77494 0.533447 12.2402 0.533447Z" fill="white"/>
</mask>
<g mask="url(#mask0_8672_1064)">
<path d="M-5.31958 0.533447H8.72884V23.9482H-5.31958V0.533447Z" fill="#076629"/>
<path d="M8.72681 0.533447H29.7992V23.9482H8.72681V0.533447Z" fill="#E32121"/>
<path d="M3.83696 9.88258C3.86875 9.93251 3.90098 9.98288 3.93372 10.0313C4.57297 10.243 5.78598 10.5405 7.69422 10.6116C8.09302 10.6272 8.41062 10.6292 8.59058 10.6272H8.7111H8.75145H8.87241C9.05185 10.6292 9.36996 10.6272 9.76825 10.6116C11.6765 10.5415 12.8894 10.2441 13.5298 10.0313C13.5621 9.98288 13.5954 9.93243 13.6256 9.88258C13.6992 9.76508 13.7688 9.64412 13.8342 9.52006C13.8031 9.46062 13.7708 9.40264 13.7364 9.34364C13.0902 9.58304 11.5147 10.0293 8.75136 10.0116V10.0105C8.74532 10.0116 8.71758 10.0116 8.71102 10.0105V10.0116C5.94814 10.0293 4.3727 9.58304 3.72585 9.34364C3.69207 9.40264 3.65985 9.46062 3.62805 9.52006C3.69328 9.64309 3.76335 9.76508 3.83696 9.88258C3.83791 9.88258 3.83791 9.88258 3.83696 9.88258Z" fill="#F5E600"/>
<path d="M8.98495 10.6408C8.94262 10.6408 8.90426 10.6408 8.87151 10.6408H8.85588H8.79885L8.73682 10.6392H8.73077H8.71868L8.66269 10.6408H8.60576H8.59072C8.55746 10.6408 8.5191 10.6408 8.47677 10.6408C8.30337 10.6408 8.02656 10.6373 7.69332 10.6252C5.82137 10.5551 4.61346 10.2697 3.92877 10.0438L3.92471 10.0418L3.92272 10.0378C3.8924 9.99282 3.86069 9.94444 3.82544 9.88898L3.80375 9.85373C3.73973 9.7504 3.67666 9.63989 3.61472 9.52654L3.61169 9.51894L3.61472 9.51289C3.64798 9.45086 3.67969 9.39237 3.71304 9.33543L3.71909 9.32481L3.73066 9.32939C4.4017 9.57786 5.92073 9.99637 8.55046 9.99637C8.59885 9.99637 8.64731 9.99637 8.69622 9.99533H8.71038H8.73103H8.76628C8.81475 9.99637 8.86313 9.99637 8.911 9.99637C11.5417 9.99637 13.0602 9.57786 13.7308 9.32939L13.7429 9.32481L13.7489 9.33543C13.7812 9.3909 13.8145 9.44991 13.8478 9.51289L13.8518 9.51894L13.8478 9.52654C13.7852 9.64093 13.7228 9.75143 13.6582 9.85476L13.636 9.88898C13.6018 9.94444 13.5694 9.99282 13.5393 10.0378L13.5373 10.0418L13.5322 10.0438C12.8496 10.2696 11.6396 10.5541 9.7677 10.6252C9.43516 10.6373 9.15844 10.6408 8.98495 10.6408ZM8.85596 10.6116H8.8716H8.98504C9.15844 10.6116 9.43525 10.6096 9.76753 10.596C11.6324 10.5268 12.8363 10.2441 13.519 10.0181C13.5431 9.98185 13.5683 9.94349 13.5956 9.90012L13.6117 9.87541C13.6823 9.765 13.7508 9.64499 13.8175 9.51998C13.7883 9.46555 13.759 9.41258 13.7298 9.36222C13.0512 9.61225 11.5311 10.0272 8.911 10.0272C8.85804 10.0272 8.80559 10.0272 8.75168 10.0272H8.73708H8.73103H8.71894H8.71038C8.6569 10.0272 8.60299 10.0272 8.55055 10.0272C5.92989 10.0272 4.40991 9.61328 3.73179 9.36222C3.70258 9.41258 3.67278 9.46658 3.64401 9.51998C3.7101 9.64499 3.77913 9.76396 3.8492 9.87541L3.87088 9.90867C3.89559 9.9485 3.92082 9.98479 3.94251 10.0181C4.62461 10.244 5.82854 10.5258 7.69341 10.596C8.02569 10.6095 8.30242 10.6116 8.4759 10.6116H8.58986H8.85596Z" fill="#101211"/>
<path d="M8.71014 10.5103H8.75049C11.3661 10.5268 12.9178 10.1286 13.6237 9.88258C13.5934 9.93252 13.5602 9.98289 13.5279 10.0313C12.7808 10.2783 11.2531 10.6429 8.75058 10.6262C8.74453 10.6262 8.71628 10.6262 8.71023 10.6262C6.20758 10.6429 4.67949 10.2784 3.9338 10.0313C3.90106 9.98289 3.86883 9.93243 3.83704 9.88258C4.54272 10.1286 6.09501 10.5268 8.71014 10.5103Z" fill="#F5E600"/>
<path d="M8.91082 10.6408C8.85786 10.6408 8.80446 10.6408 8.75055 10.6392H8.73595H8.7299H8.71884H8.71029C6.16125 10.657 4.61544 10.2717 3.92885 10.0448L3.92479 10.0428L3.9228 10.0389C3.89248 9.99395 3.86077 9.94557 3.82552 9.8901L3.80383 9.85485L3.84314 9.86945C4.51522 10.1039 6.02059 10.4961 8.55253 10.4961H8.69828V10.495H8.71236H8.73301H8.76835V10.4961H8.9141C11.4445 10.4961 12.9504 10.1024 13.6239 9.86945L13.6622 9.85485L13.641 9.8901C13.6068 9.94453 13.5755 9.99291 13.5432 10.0389L13.5412 10.0428L13.5372 10.0448C12.8594 10.2668 11.3661 10.6408 8.91082 10.6408ZM8.76619 10.6116C11.2966 10.6272 12.8332 10.2461 13.5199 10.0193C13.5431 9.98496 13.5663 9.94963 13.5914 9.91084C12.8837 10.1514 11.3339 10.5415 8.75159 10.5259H8.73699H8.73094H8.71884H8.71029C8.65681 10.5259 8.60394 10.5259 8.55149 10.5259C6.06397 10.5259 4.56507 10.1468 3.87183 9.91084C3.89757 9.95066 3.92176 9.986 3.94345 10.0193C4.62961 10.2461 6.16427 10.6262 8.69716 10.6116H8.71133H8.73198H8.76619Z" fill="#101211"/>
<path d="M8.71021 10.1276H8.75056C11.593 10.1457 13.18 9.67437 13.7891 9.43997C13.771 9.40766 13.7548 9.37492 13.7346 9.34373C13.0884 9.58313 11.5128 10.0294 8.74952 10.0117V10.0106C8.74348 10.0117 8.71522 10.0117 8.70918 10.0106V10.0117C5.9463 10.0294 4.37034 9.58313 3.72401 9.34373C3.70587 9.37492 3.68816 9.40775 3.67053 9.43997C4.28161 9.67437 5.86777 10.1457 8.71021 10.1276Z" fill="#F5E600"/>
<path d="M8.91082 10.1427C8.85786 10.1427 8.80447 10.1427 8.75055 10.1417H8.73595H8.72991H8.71885H8.71029C8.65681 10.1427 8.6029 10.1427 8.55046 10.1427C5.76245 10.1427 4.20662 9.66071 3.66664 9.45302L3.651 9.44697L3.65904 9.43237C3.67666 9.40057 3.69437 9.36835 3.71303 9.33655L3.71908 9.32593L3.73066 9.33051C4.4017 9.57898 5.92072 9.99749 8.55046 9.99749C8.59884 9.99749 8.64731 9.99749 8.69621 9.99645H8.71038H8.73103H8.76628C8.81475 9.99749 8.86313 9.99749 8.91099 9.99749C11.5417 9.99749 13.0602 9.57898 13.7308 9.33051L13.7429 9.32593L13.7489 9.33655C13.7671 9.36835 13.7852 9.40057 13.8034 9.43237L13.8115 9.44697L13.7952 9.45302C13.2547 9.66071 11.6983 10.1427 8.91082 10.1427ZM8.76619 10.114C11.6147 10.1306 13.2084 9.64611 13.769 9.43237C13.7568 9.40965 13.7438 9.38597 13.7307 9.36334C13.0521 9.61337 11.5321 10.0283 8.91194 10.0283C8.85898 10.0283 8.80654 10.0283 8.75263 10.0283H8.73803H8.73198H8.71885H8.71029C8.65681 10.0283 8.6029 10.0283 8.55046 10.0283C5.9298 10.0283 4.40982 9.61441 3.7317 9.36334C3.71804 9.38597 3.70595 9.40973 3.69238 9.43237C4.24498 9.64205 5.79372 10.114 8.55046 10.114H8.69621H8.71038H8.73103H8.76619Z" fill="#101211"/>
<path d="M8.33766 13.5241C12.0009 15.6254 13.0309 15.8009 13.3 15.7837C13.3847 15.6759 13.4664 15.5609 13.5431 15.447C13.66 15.2564 13.7689 15.0599 13.8647 14.8571C13.5178 14.8441 12.3996 14.5708 8.96127 12.5965C4.87256 10.2511 4.17525 9.07944 4.0689 8.84401C3.98224 8.95546 3.89999 9.07089 3.82033 9.18882C3.69229 9.39453 3.57687 9.60827 3.47449 9.83118C3.65601 10.1654 4.51306 11.3315 8.33766 13.5241Z" fill="#F5E600"/>
<path d="M13.2647 15.7989C12.9663 15.7989 11.8884 15.579 8.32903 13.5363C4.47368 11.326 3.62924 10.1457 3.46189 9.83722L3.45886 9.83014L3.46189 9.82409C3.56323 9.60274 3.67969 9.38692 3.80877 9.17974C3.88843 9.06181 3.97214 8.94535 4.05889 8.8339L4.07452 8.8142L4.0836 8.83589C4.17785 9.04713 4.85797 10.2254 8.96837 12.5803C12.4662 14.587 13.5582 14.8289 13.8658 14.8399H13.888L13.8789 14.8611C13.7832 15.0638 13.6742 15.2625 13.5552 15.4531C13.4796 15.568 13.398 15.6839 13.3132 15.7918L13.3092 15.7959H13.3021C13.289 15.7989 13.2789 15.7989 13.2647 15.7989ZM3.49117 9.8291C3.66561 10.1457 4.52266 11.3189 8.34467 13.512C11.8976 15.5509 12.9693 15.7707 13.2657 15.7707C13.2758 15.7707 13.2849 15.7707 13.2929 15.7687C13.3756 15.6618 13.4542 15.5509 13.5298 15.438C13.6438 15.2545 13.7487 15.0639 13.8414 14.8693C13.4361 14.8461 12.2685 14.5083 8.95411 12.6097C4.95819 10.3182 4.19582 9.13447 4.06683 8.87079C3.98666 8.97715 3.90804 9.08549 3.83391 9.19599C3.70587 9.39962 3.58993 9.61233 3.49117 9.8291Z" fill="#101211"/>
<path d="M8.33772 13.5241C12.0009 15.6254 13.031 15.8009 13.3001 15.7837C13.3183 15.7626 13.3334 15.7384 13.3525 15.7182C12.9825 15.696 11.8295 15.3935 8.41081 13.4324C4.69818 11.3022 3.75033 10.1305 3.51792 9.73933C3.50332 9.76905 3.49019 9.79981 3.47559 9.83109C3.65607 10.1654 4.51312 11.3315 8.33772 13.5241Z" fill="#F5E600"/>
<path d="M13.2647 15.7989C12.9663 15.7989 11.8884 15.579 8.32903 13.5363C4.47368 11.326 3.62924 10.1457 3.46189 9.83722L3.45886 9.83014L3.46189 9.82409C3.47649 9.79281 3.49014 9.76206 3.50422 9.73182L3.5158 9.70815L3.52997 9.73087C3.76989 10.1357 4.72682 11.3013 8.41724 13.4193C11.7881 15.3512 12.9562 15.678 13.3514 15.7022H13.3777L13.3615 15.7244C13.3444 15.7455 13.3272 15.7708 13.3101 15.7919L13.306 15.796H13.2989C13.289 15.7989 13.2789 15.7989 13.2647 15.7989ZM3.49117 9.8291C3.66561 10.1457 4.52266 11.3189 8.34467 13.512C11.8976 15.5509 12.9693 15.7707 13.2657 15.7707C13.2758 15.7707 13.2849 15.7707 13.2929 15.7687C13.304 15.7566 13.3141 15.7435 13.3232 15.7283C12.8998 15.6921 11.7054 15.3391 8.40264 13.4435C4.77416 11.3623 3.78199 10.1957 3.51882 9.77018C3.50932 9.78875 3.50016 9.80949 3.49117 9.8291Z" fill="#101211"/>
<path d="M4.06886 8.84296C4.04112 8.87925 4.01244 8.91606 3.98462 8.95338C4.16821 9.29421 5.03632 10.4734 8.90222 12.6913C12.2145 14.5909 13.3978 14.9338 13.8071 14.9721C13.8263 14.9338 13.8454 14.8955 13.8635 14.8551C13.5167 14.8429 12.3984 14.5687 8.96011 12.5964C4.87148 10.2501 4.17426 9.07943 4.06886 8.84296Z" fill="#F5E600"/>
<path d="M13.8152 14.9883L13.8051 14.9863C13.3897 14.948 12.1969 14.5971 8.89515 12.7034C4.99651 10.4659 4.14144 9.27357 3.97098 8.96055L3.96692 8.95252L3.97193 8.94543C3.99966 8.90716 4.02791 8.87087 4.0566 8.83398L4.07224 8.81429L4.08131 8.83597C4.17505 9.04721 4.85568 10.2255 8.96617 12.5804C12.4639 14.587 13.556 14.829 13.8636 14.84H13.8858L13.8767 14.8612C13.8575 14.9015 13.8394 14.9388 13.8192 14.9772L13.8152 14.9883ZM4.00182 8.95537C4.18075 9.27858 5.05102 10.4638 8.91079 12.6791C12.1818 14.5536 13.3756 14.9136 13.7991 14.958C13.8143 14.9277 13.8274 14.8964 13.8414 14.8693C13.4361 14.8451 12.2685 14.5074 8.95416 12.6086C4.95823 10.3172 4.19587 9.13292 4.06688 8.86975C4.04416 8.89844 4.02247 8.92669 4.00182 8.95537Z" fill="#101211"/>
<path d="M8.73084 15.6517C6.24279 15.6436 4.74546 15.3432 3.86965 15.0447C3.83492 15.0971 3.80157 15.1516 3.76831 15.2061C3.8833 15.3996 4.00936 15.5822 4.14543 15.7606C6.05669 16.291 8.73075 16.291 8.73075 16.291C8.73075 16.291 11.4063 16.291 13.317 15.7606C13.4521 15.5822 13.5792 15.3987 13.6941 15.2061C13.6608 15.1505 13.6274 15.0971 13.5912 15.0447C12.7162 15.3432 11.2194 15.6437 8.73084 15.6517Z" fill="#F5E600"/>
<path d="M8.73082 16.3051C8.70404 16.3051 6.03205 16.2991 4.14144 15.7747L4.13634 15.7728L4.1328 15.7687C3.99664 15.5912 3.86963 15.4047 3.75516 15.2141L3.7511 15.2061L3.75516 15.199C3.79343 15.1334 3.82523 15.085 3.8565 15.0367L3.86255 15.0255L3.87266 15.0306C4.66975 15.3028 6.16009 15.6286 8.72978 15.6375C11.3 15.6286 12.7897 15.3028 13.5873 15.0306L13.5974 15.0255L13.6044 15.0367C13.6356 15.085 13.6679 15.1355 13.7063 15.199L13.7103 15.2061L13.7063 15.2141C13.5913 15.4057 13.4642 15.5912 13.3292 15.7687L13.3251 15.7728L13.3212 15.7747C11.4301 16.299 8.75752 16.3051 8.73082 16.3051ZM4.15353 15.7485C6.04009 16.2688 8.70404 16.2768 8.73082 16.2768C8.75752 16.2768 11.4216 16.2688 13.308 15.7485C13.4412 15.5751 13.5652 15.3915 13.6761 15.2061C13.6438 15.1516 13.6135 15.1052 13.5854 15.0608C12.7847 15.333 11.2924 15.6597 8.72978 15.6658C6.16813 15.6597 4.67632 15.333 3.8737 15.0608C3.84596 15.1052 3.81728 15.1516 3.78393 15.2061C3.89642 15.3936 4.02048 15.5752 4.15353 15.7485Z" fill="#101211"/>
<path d="M8.73084 15.7666C6.18577 15.7606 4.67737 15.446 3.80969 15.1405C3.79561 15.1617 3.783 15.1848 3.76831 15.208C3.85203 15.3472 3.94128 15.4833 4.03605 15.6144C5.95138 16.1749 8.73084 16.1749 8.73084 16.1749C8.73084 16.1749 11.5093 16.1749 13.426 15.6144C13.5208 15.4832 13.6095 15.3472 13.6932 15.208C13.6801 15.1847 13.6661 15.1617 13.6518 15.1405C12.7848 15.446 11.2763 15.7606 8.73084 15.7666Z" fill="#F5E600"/>
<path d="M8.7308 16.1902C8.70306 16.1902 5.92766 16.1821 4.03204 15.6275L4.02651 15.6255L4.02348 15.6215C3.92974 15.4904 3.83998 15.3533 3.75626 15.2141L3.7522 15.2081L3.77285 15.1738C3.78088 15.1598 3.789 15.1456 3.79756 15.1315L3.8036 15.1215L3.81518 15.1255C4.61322 15.4069 6.11462 15.7446 8.73175 15.7517C11.3493 15.7435 12.8511 15.4069 13.6488 15.1255L13.6589 15.1215L13.6659 15.1315C13.674 15.1456 13.6821 15.1598 13.6912 15.1738L13.7122 15.2081L13.7072 15.2141C13.6235 15.3532 13.5338 15.4904 13.4391 15.6215L13.436 15.6255L13.4309 15.6275C11.5345 16.1821 8.75853 16.1902 8.7308 16.1902ZM4.04413 15.6013C5.93578 16.1538 8.70306 16.1599 8.7308 16.1599C8.75853 16.1599 11.5259 16.1538 13.4179 15.6013C13.5086 15.4742 13.5954 15.3411 13.676 15.208L13.6659 15.1868C13.6578 15.1757 13.6518 15.1657 13.6458 15.1546C12.8432 15.4359 11.3398 15.7747 8.7308 15.7788C6.12179 15.7727 4.61936 15.4359 3.81622 15.1546C3.80965 15.1657 3.8036 15.1757 3.79756 15.1868L3.78598 15.208C3.86564 15.3412 3.95238 15.4742 4.04413 15.6013Z" fill="#101211"/>
<path d="M8.73083 13.6935C8.73083 13.6935 12.815 13.6935 14.4948 12.6953C14.5038 12.5925 14.5089 12.4876 14.512 12.3827C14.51 12.2638 14.5049 12.1468 14.4948 12.0293C13.9825 12.3667 12.4832 13.0443 8.73083 13.0543C4.98088 13.0443 3.48043 12.3667 2.9662 12.0293C2.95713 12.1468 2.95315 12.2638 2.95056 12.3827C2.95307 12.4876 2.95911 12.5925 2.96715 12.6953C4.64713 13.6935 8.73083 13.6935 8.73083 13.6935Z" fill="#F5E600"/>
<path d="M8.73088 13.7097C8.68949 13.7097 4.62342 13.6976 2.96028 12.7074L2.95423 12.7023L2.9532 12.6943C2.94456 12.5904 2.93955 12.4866 2.93652 12.3806C2.93851 12.2495 2.94361 12.1346 2.95164 12.0281L2.9532 12.0034L2.97385 12.0171C3.43814 12.3222 4.92796 13.03 8.72984 13.0401C12.5316 13.03 14.0209 12.3222 14.4868 12.0171L14.508 12.0034L14.5099 12.0281C14.518 12.1355 14.523 12.2495 14.5251 12.3806C14.5231 12.4866 14.5169 12.5904 14.5089 12.6943V12.7023L14.5008 12.7074C12.8372 13.6976 8.77123 13.7097 8.73088 13.7097ZM2.98093 12.6873C4.64216 13.6674 8.68958 13.6794 8.73088 13.6794C8.77218 13.6794 12.8191 13.6673 14.4807 12.6873C14.4889 12.5845 14.4948 12.4836 14.4969 12.3828C14.4949 12.2638 14.4908 12.1549 14.4828 12.0551C13.9938 12.3687 12.4864 13.0604 8.73088 13.0704C4.97591 13.0604 3.46847 12.3687 2.97886 12.0551C2.97134 12.1549 2.96728 12.2638 2.96521 12.3828C2.96832 12.4835 2.97393 12.5844 2.98093 12.6873Z" fill="#101211"/>
<path d="M8.73081 13.1712C4.98085 13.1612 3.4804 12.4816 2.96617 12.1468C2.95909 12.2416 2.95511 12.3384 2.95312 12.4352C2.95416 12.4816 2.95615 12.528 2.95917 12.5744C4.63501 13.5786 8.73081 13.5786 8.73081 13.5786C8.73081 13.5786 12.8271 13.5786 14.5029 12.5744C14.5049 12.528 14.5069 12.4816 14.5089 12.4352C14.5069 12.3384 14.5029 12.2416 14.4947 12.1468C13.9805 12.4816 12.4822 13.1612 8.73081 13.1712Z" fill="#F5E600"/>
<path d="M8.73084 13.5927C8.68946 13.5927 4.61129 13.5806 2.95213 12.5864L2.94556 12.5824L2.94452 12.5754C2.94254 12.5269 2.94055 12.4805 2.93848 12.4341C2.9415 12.3203 2.94556 12.2284 2.95213 12.1438L2.95316 12.119L2.97381 12.1327C3.43811 12.4362 4.92793 13.1472 8.72981 13.1572C12.5316 13.1472 14.0209 12.4372 14.4868 12.1327L14.5079 12.119L14.5099 12.1438C14.5159 12.2284 14.5199 12.3203 14.523 12.4321C14.521 12.4806 14.5189 12.527 14.5169 12.5763V12.5824L14.5099 12.5864C12.8513 13.5807 8.77119 13.5927 8.73084 13.5927ZM2.9739 12.5662C4.63107 13.5524 8.69058 13.5645 8.73093 13.5645C8.77128 13.5645 12.8311 13.5524 14.4889 12.5662C14.4908 12.5218 14.4929 12.4775 14.4949 12.4331C14.4929 12.3323 14.4889 12.2475 14.4828 12.1709C13.9938 12.4835 12.4863 13.1752 8.73084 13.1853C4.97588 13.1742 3.46843 12.4825 2.97882 12.1709C2.97381 12.2475 2.96923 12.3323 2.96725 12.4351C2.96828 12.4775 2.97036 12.5219 2.9739 12.5662Z" fill="#101211"/>
<path d="M8.73081 6.45782C5.53846 6.45782 2.94958 9.04618 2.94958 12.2396C2.94958 15.4339 5.53846 18.0212 8.73081 18.0212C11.9237 18.0212 14.513 15.4339 14.513 12.2396C14.5131 9.04618 11.9237 6.45782 8.73081 6.45782ZM8.73081 17.4425C5.85761 17.4425 3.52689 15.1133 3.52689 12.2396C3.52689 9.36636 5.85657 7.03608 8.73081 7.03608C11.6055 7.03608 13.9342 9.36628 13.9342 12.2396C13.9342 15.1133 11.6045 17.4425 8.73081 17.4425Z" fill="#F5E600"/>
<path d="M8.73085 18.0354C5.53548 18.0354 2.93555 15.4359 2.93555 12.2396C2.93555 9.04514 5.53548 6.44426 8.73085 6.44426C11.9267 6.44426 14.5271 9.04514 14.5271 12.2396C14.5272 15.4359 11.9267 18.0354 8.73085 18.0354ZM8.73085 6.47346C5.5506 6.47346 2.96423 9.05983 2.96423 12.2396C2.96423 15.4198 5.55155 18.0071 8.73085 18.0071C11.9101 18.0071 14.4969 15.4198 14.4969 12.2396C14.4969 9.05974 11.9111 6.47346 8.73085 6.47346ZM8.73085 17.4586C5.85307 17.4586 3.5138 15.1173 3.5138 12.2395C3.5138 9.36222 5.85411 7.02139 8.73085 7.02139C11.6076 7.02139 13.9483 9.36325 13.9483 12.2395C13.9483 15.1173 11.6086 17.4586 8.73085 17.4586ZM8.73085 7.05171C5.86975 7.05171 3.54248 9.37993 3.54248 12.2396C3.54248 15.1013 5.86975 17.4284 8.73085 17.4284C11.592 17.4284 13.9201 15.1012 13.9201 12.2396C13.9201 9.37993 11.592 7.05171 8.73085 7.05171Z" fill="#101211"/>
<path d="M8.73083 6.57429C5.60146 6.57429 3.06555 9.11123 3.06555 12.2396C3.06555 15.3695 5.6025 17.9063 8.73083 17.9063C11.8596 17.9063 14.396 15.3695 14.396 12.2396C14.396 9.11123 11.8606 6.57429 8.73083 6.57429ZM8.73083 17.5594C5.79352 17.5594 3.41243 15.1778 3.41243 12.2395C3.41243 9.30321 5.79361 6.9216 8.73083 6.9216C11.6686 6.9216 14.0491 9.30321 14.0491 12.2395C14.0491 15.1778 11.6686 17.5594 8.73083 17.5594Z" fill="#F5E600"/>
<path d="M8.73078 17.9205C5.59839 17.9205 3.0509 15.3714 3.0509 12.2396C3.0509 9.10718 5.59943 6.56116 8.73078 6.56116C11.8627 6.56116 14.4101 9.10813 14.4101 12.2396C14.4101 15.3714 11.8627 17.9205 8.73078 17.9205ZM8.73078 6.58794C5.61455 6.58794 3.07967 9.12281 3.07967 12.2396C3.07967 15.3553 5.61455 17.8922 8.73078 17.8922C11.8469 17.8922 14.3819 15.3553 14.3819 12.2396C14.3819 9.12385 11.847 6.58794 8.73078 6.58794ZM8.73078 17.5735C5.79002 17.5735 3.39675 15.1828 3.39675 12.2395C3.39675 9.29924 5.78898 6.90692 8.73078 6.90692C11.6725 6.90692 14.0653 9.2982 14.0653 12.2395C14.0633 15.1819 11.6715 17.5735 8.73078 17.5735ZM8.73078 6.93474C5.80566 6.93474 3.42699 9.31487 3.42699 12.2395C3.42699 15.1657 5.80661 17.5454 8.73078 17.5454C11.6549 17.5454 14.035 15.1657 14.035 12.2395C14.035 9.31487 11.655 6.93474 8.73078 6.93474Z" fill="#101211"/>
<path d="M8.44202 6.45782H9.02027V18.0212H8.44202V6.45782Z" fill="#F5E600"/>
<path d="M9.03433 18.0354H8.42627V6.44426H9.03433V18.0354ZM8.45608 18.0071H9.00564V6.47441H8.45608V18.0071Z" fill="#101211"/>
<path d="M8.44202 6.40089H8.55744V18.0798H8.44202V6.40089Z" fill="#F5E600"/>
<path d="M8.57202 18.0939H8.42627V6.38776H8.57202V18.0939ZM8.45608 18.0656H8.54282V6.41445H8.45608V18.0656Z" fill="#101211"/>
<path d="M8.9043 6.40089H9.02024V18.0798H8.9043V6.40089Z" fill="#F5E600"/>
<path d="M9.0343 18.0939H8.88855V6.38776H9.0343V18.0939ZM8.91887 18.0656H9.00562V6.41445H8.91887V18.0656Z" fill="#101211"/>
<path d="M2.95416 12.0293C2.95218 12.0993 2.94958 12.1689 2.94958 12.2396C2.94958 12.3908 2.95511 12.5401 2.96721 12.6883C3.48041 12.3515 4.98085 11.6734 8.73184 11.6628C12.4832 11.6734 13.9826 12.3515 14.4968 12.6883C14.509 12.5401 14.515 12.3918 14.515 12.2396C14.515 12.1699 14.5131 12.1004 14.51 12.0293C12.8381 11.0225 8.7328 11.0225 8.7328 11.0225C8.7328 11.0225 4.62542 11.0225 2.95416 12.0293Z" fill="#F5E600"/>
<path d="M14.508 12.7135L14.4868 12.6994C14.023 12.3948 12.5317 11.6865 8.72988 11.6763C4.928 11.6865 3.43818 12.3948 2.97388 12.6994L2.95323 12.7135L2.9522 12.6902C2.94062 12.54 2.93457 12.3896 2.93457 12.2395C2.93457 12.1769 2.93561 12.1109 2.93854 12.0292V12.0212L2.94459 12.0171C4.60081 11.0194 8.68849 11.0083 8.72988 11.0083C8.77126 11.0083 12.8594 11.0194 14.514 12.0171L14.5211 12.0212L14.5222 12.0292C14.5252 12.1099 14.5273 12.1769 14.5273 12.2395C14.5273 12.3897 14.5202 12.54 14.5091 12.6902L14.508 12.7135ZM8.73083 11.6471C12.4862 11.6587 13.9938 12.3505 14.4828 12.661C14.4928 12.5219 14.4989 12.3807 14.4989 12.2396C14.4989 12.1791 14.4969 12.1151 14.4949 12.0384C12.8403 11.0492 8.77221 11.0371 8.73091 11.0371C8.68961 11.0371 4.62155 11.0492 2.96731 12.0384C2.96533 12.115 2.96334 12.179 2.96334 12.2396C2.96334 12.3807 2.96835 12.5219 2.97898 12.661C3.46841 12.3504 4.97586 11.6587 8.73083 11.6471Z" fill="#101211"/>
<path d="M8.73078 11.1385C8.73078 11.1385 4.62539 11.1385 2.95414 12.1447C2.9531 12.1709 2.9531 12.1972 2.95215 12.2254C2.95414 12.3404 2.9582 12.4574 2.96727 12.5724C3.48046 12.2355 4.98091 11.5564 8.7319 11.5463C12.4832 11.5564 13.9826 12.2355 14.4969 12.5724C14.506 12.4574 14.511 12.3404 14.5131 12.2254C14.5121 12.1972 14.5111 12.171 14.5101 12.1447C12.8361 11.1385 8.73078 11.1385 8.73078 11.1385Z" fill="#F5E600"/>
<path d="M14.508 12.5965L14.4868 12.5844C14.0229 12.2798 12.5316 11.571 8.72984 11.5594C4.92796 11.5709 3.43814 12.2798 2.97385 12.5844L2.9532 12.5965L2.95216 12.5724C2.94361 12.4675 2.93851 12.3546 2.93652 12.2254C2.93652 12.1971 2.93756 12.171 2.93851 12.1447V12.1367L2.94456 12.1336C4.60078 11.1359 8.68846 11.1238 8.72984 11.1238C8.77123 11.1238 12.8593 11.1359 14.514 12.1336L14.5211 12.1367L14.5221 12.1447C14.5221 12.1709 14.5232 12.1971 14.5251 12.2233C14.5221 12.3545 14.517 12.4674 14.509 12.5723L14.508 12.5965ZM2.96719 12.1548C2.96616 12.177 2.96616 12.2012 2.96521 12.2254C2.96719 12.3424 2.97125 12.4493 2.97886 12.5461C3.46847 12.2334 4.97583 11.5417 8.73088 11.5316C12.4863 11.5417 13.9938 12.2334 14.4828 12.5461C14.4908 12.4493 14.4949 12.3434 14.4969 12.2234C14.4949 12.2012 14.4949 12.177 14.4949 12.1549C12.8403 11.1652 8.77226 11.1536 8.73096 11.1536C8.68967 11.1536 4.62143 11.1641 2.96719 12.1548Z" fill="#101211"/>
<path d="M3.49207 9.79282C3.91308 9.60732 5.52083 9.01032 8.71016 9.03106V9.03209H8.7505V9.03106C11.9398 9.01041 13.5491 9.60836 13.9705 9.79282C13.8666 9.57397 13.7506 9.36325 13.6236 9.16108C13.5933 9.11115 13.5601 9.06078 13.5278 9.0124C12.8885 8.80064 11.6746 8.50317 9.76635 8.43207C9.36806 8.41643 9.04995 8.41445 8.87042 8.41643C8.83007 8.41643 8.79076 8.41643 8.74947 8.41643C8.74342 8.41643 8.71517 8.41643 8.70912 8.41643C8.66773 8.41643 8.62842 8.41643 8.5886 8.41643C8.40863 8.41445 8.09043 8.41643 7.69214 8.43207C5.78391 8.50214 4.5709 8.7996 3.93165 9.0124C3.89891 9.06078 3.86668 9.11123 3.83489 9.16108C3.70987 9.36334 3.59393 9.57406 3.49207 9.79282Z" fill="#F5E600"/>
<path d="M3.46179 9.82054L3.47838 9.78676C3.57419 9.58209 3.68262 9.37992 3.80254 9.18683L3.82423 9.15356C3.85956 9.09715 3.89127 9.04868 3.92151 9.00384L3.9235 8.99986L3.92756 8.99788C4.61216 8.77204 5.82016 8.4877 7.69211 8.4166C8.02534 8.40451 8.30216 8.40096 8.47555 8.40096C8.51789 8.40096 8.55625 8.40096 8.58951 8.402H8.60567H8.6626H8.72464H8.73068H8.7433H8.79876H8.85579H8.87142C8.90417 8.40096 8.94253 8.40096 8.98486 8.40096C9.15826 8.40096 9.43507 8.40451 9.76831 8.4166C11.6403 8.48667 12.8492 8.77204 13.5329 8.99788L13.5369 8.99986L13.541 9.00384C13.5702 9.04876 13.6025 9.09611 13.6377 9.15356L13.6589 9.18683C13.7789 9.38096 13.8899 9.58209 13.9826 9.78676L13.9997 9.82054L13.9654 9.80542C13.5531 9.62442 11.9473 9.02552 8.76714 9.04514H8.75254H8.73189H8.69656C8.64817 9.0441 8.59971 9.0441 8.55132 9.0441C5.46792 9.0441 3.90397 9.62641 3.49817 9.80542L3.46179 9.82054ZM3.86561 9.14345L3.84997 9.16713C3.72945 9.36022 3.61756 9.5604 3.52175 9.76404C3.97801 9.56999 5.5455 9.01533 8.55124 9.01533H8.71107H8.72567H8.73172H8.74433H8.75245C11.8626 8.99468 13.4774 9.56593 13.9422 9.76404C13.8454 9.5604 13.7345 9.35919 13.6135 9.16713L13.5913 9.13386H13.5933C13.5671 9.09404 13.5429 9.0587 13.5207 9.0244C12.8381 8.79856 11.6341 8.51673 9.76969 8.44667C9.43697 8.43302 9.16016 8.43103 8.98676 8.43103C8.94443 8.43103 8.90607 8.43103 8.87332 8.43103H8.59254C8.55927 8.43103 8.52091 8.43103 8.4791 8.43103C8.30518 8.43103 8.02888 8.43302 7.69609 8.44667C5.83122 8.5157 4.62728 8.79856 3.94509 9.0244C3.91805 9.06077 3.89334 9.09913 3.86561 9.14345Z" fill="#101211"/>
<path d="M8.7505 8.91511C8.74445 8.91511 8.7162 8.91511 8.71016 8.91511C5.67764 8.89446 4.07533 9.43435 3.56213 9.64715C3.53846 9.69605 3.51479 9.74443 3.49207 9.7929C3.91308 9.60741 5.52083 9.01041 8.71016 9.03114V9.03218H8.7505V9.03114C11.9398 9.01049 13.5491 9.60844 13.9705 9.7929C13.9463 9.74443 13.922 9.6951 13.8978 9.64715C13.3857 9.4334 11.7829 8.89541 8.7505 8.91511Z" fill="#F5E600"/>
<path d="M3.46179 9.82054L3.47838 9.78676C3.5011 9.73734 3.52477 9.68844 3.54948 9.64006L3.55147 9.63505L3.557 9.63306C4.09793 9.40869 5.69713 8.88038 8.71003 8.90102H8.72464H8.73068H8.7433H8.75142C11.7632 8.88038 13.3625 9.40869 13.9049 9.63306L13.91 9.63505L13.913 9.64006C13.9362 9.68853 13.9614 9.73734 13.9826 9.78676L13.9997 9.82054L13.9664 9.80542C13.553 9.62442 11.9472 9.02552 8.76706 9.04513H8.75245H8.73181H8.69699C5.51777 9.02647 3.91097 9.62546 3.49808 9.80542L3.46179 9.82054ZM3.57324 9.65768C3.5551 9.69397 3.53843 9.72775 3.5208 9.76508C3.98665 9.56697 5.60149 8.99675 8.71012 9.01636H8.72472H8.73077H8.74338H8.7515H8.91177C11.9171 9.01636 13.4845 9.56999 13.9402 9.76508C13.9241 9.72879 13.907 9.69501 13.8879 9.65768C13.3534 9.43789 11.8067 8.92971 8.91186 8.92971C8.86296 8.92971 8.81457 8.92971 8.76611 8.92971H8.7515H8.73086H8.69604C5.70681 8.91208 4.11771 9.4334 3.57324 9.65768Z" fill="#101211"/>
<path d="M8.71014 8.53238C8.71619 8.53238 8.74436 8.53238 8.75049 8.53341V8.53238C11.3661 8.51579 12.9178 8.91399 13.6237 9.16005C13.5934 9.11011 13.5602 9.05974 13.5279 9.01136C12.7808 8.76435 11.2531 8.39976 8.75058 8.41643C8.74453 8.41643 8.71628 8.41643 8.71023 8.41643C6.20758 8.39976 4.67949 8.76426 3.9338 9.01136C3.90106 9.05974 3.86883 9.11019 3.83704 9.16005C4.54272 8.91407 6.09501 8.51682 8.71014 8.53238Z" fill="#F5E600"/>
<path d="M3.80261 9.18778L3.8243 9.15357C3.85963 9.09715 3.89134 9.04816 3.92158 9.00384L3.92357 8.99987L3.92763 8.99788C4.61431 8.77048 6.16106 8.3868 8.70907 8.40295H8.72367H8.72972H8.74233H8.75045C11.301 8.3868 12.8452 8.77048 13.5318 8.99788L13.5359 8.99987L13.5389 9.00384C13.5701 9.04972 13.6024 9.0981 13.6357 9.15357L13.6579 9.18778L13.6186 9.17318C12.948 8.93878 11.4411 8.54654 8.90925 8.54654C8.86087 8.54654 8.81249 8.54654 8.76402 8.54758H8.74942H8.72877H8.69343C8.64505 8.54654 8.59658 8.54654 8.5482 8.54654C6.01739 8.54654 4.51089 8.93982 3.8389 9.17318L3.80261 9.18778ZM3.94327 9.02449C3.92158 9.05775 3.89739 9.09309 3.87164 9.13292C4.57906 8.89239 6.12677 8.50222 8.71114 8.51786H8.72574H8.73179H8.74441H8.75253C11.3368 8.50119 12.8846 8.89144 13.5913 9.13292C13.5672 9.09412 13.543 9.05879 13.5208 9.02449C12.8351 8.79761 11.3 8.41755 8.76713 8.43215H8.75253H8.73188H8.69706C6.16314 8.41747 4.62839 8.79761 3.94327 9.02449Z" fill="#101211"/>
<path d="M3.56628 14.841C3.65804 15.0225 3.75938 15.1999 3.86876 15.3694C4.74542 15.0688 6.24285 14.7684 8.72986 14.7623C11.2184 14.7684 12.7152 15.0689 13.5914 15.3694C13.7003 15.1999 13.8012 15.0224 13.8939 14.841C12.0028 14.123 8.72986 14.123 8.72986 14.123C8.72986 14.123 5.45794 14.1231 3.56628 14.841Z" fill="#F5E600"/>
<path d="M13.5975 15.3876L13.5874 15.3835C12.7908 15.1103 11.3001 14.7845 8.72993 14.7765C6.16024 14.7846 4.6699 15.1103 3.8728 15.3835L3.86269 15.3876L3.85665 15.3775C3.74718 15.2081 3.64489 15.0286 3.55262 14.8461L3.54553 14.831L3.56117 14.825C5.43312 14.1151 8.69813 14.1081 8.73088 14.1081C8.76414 14.1081 12.0285 14.1161 13.9009 14.825L13.9161 14.831L13.908 14.8461C13.8172 15.0277 13.7144 15.2081 13.6045 15.3775L13.5975 15.3876ZM3.58597 14.8491C3.67374 15.0204 3.77103 15.1898 3.87488 15.3532C4.6775 15.079 6.16827 14.7543 8.73096 14.7483C11.2936 14.7543 12.7849 15.079 13.5874 15.3532C13.6913 15.1898 13.7871 15.0204 13.8758 14.8491C12.0059 14.1453 8.76414 14.1373 8.73096 14.1373C8.69813 14.1373 5.45585 14.1453 3.58597 14.8491Z" fill="#101211"/>
<path d="M3.6156 14.9378C3.6766 15.0528 3.74062 15.1637 3.80973 15.2746C4.67741 14.9681 6.18581 14.6535 8.73088 14.6474C11.2764 14.6534 12.7848 14.9691 13.6519 15.2746C13.7204 15.1637 13.785 15.0528 13.8455 14.9378C11.9484 14.2381 8.73079 14.2381 8.73079 14.2381C8.73079 14.2381 5.51477 14.2381 3.6156 14.9378Z" fill="#F5E600"/>
<path d="M13.6579 15.2927L13.6479 15.2888C12.8492 15.0063 11.3474 14.6677 8.73081 14.6615C6.11369 14.6686 4.61333 15.0063 3.81425 15.2888L3.80267 15.2927L3.79662 15.2827C3.72854 15.1718 3.66348 15.0589 3.60249 14.9439L3.59497 14.9298L3.61061 14.9237C5.49008 14.232 8.69807 14.2239 8.72986 14.2239C8.76209 14.2239 11.9711 14.232 13.8495 14.9237L13.8647 14.9298L13.8557 14.9439C13.7951 15.0589 13.7316 15.1718 13.6621 15.2827L13.6579 15.2927ZM8.73081 14.6314C11.3398 14.6394 12.8432 14.9742 13.6458 15.2564C13.7084 15.1546 13.7689 15.0507 13.8253 14.9459C11.9493 14.2602 8.76304 14.2511 8.73081 14.2511C8.69902 14.2511 5.51271 14.2602 3.63627 14.9459C3.69225 15.0507 3.75325 15.1546 3.81528 15.2564C4.61842 14.9741 6.12181 14.6393 8.73081 14.6314Z" fill="#101211"/>
<path d="M13.293 15.7909C13.526 15.4925 13.7297 15.1718 13.901 14.829C13.7508 14.5305 12.9502 13.3608 9.0253 11.1092C5.27837 8.95953 4.28619 8.82639 4.04523 8.85213C3.83598 9.14156 3.65195 9.45112 3.49817 9.77727C3.84505 9.78988 4.96328 10.0657 8.4016 12.0365C12.4903 14.3833 13.1871 15.5549 13.293 15.7909Z" fill="#F5E600"/>
<path d="M13.2889 15.8191L13.2789 15.7969C13.184 15.5852 12.5045 14.4094 8.39362 12.052C4.89828 10.0469 3.80476 9.80543 3.49727 9.79386L3.47559 9.79282L3.48466 9.77217C3.63741 9.44801 3.82247 9.13543 4.03414 8.84401L4.03716 8.83891L4.04321 8.83788C4.0598 8.83693 4.07742 8.83485 4.09609 8.83485C4.39459 8.83485 5.47247 9.05568 9.03131 11.0971C12.9481 13.3436 13.7568 14.5163 13.9131 14.8228L13.916 14.8289L13.9131 14.837C13.7417 15.1758 13.5369 15.5004 13.304 15.8008L13.2889 15.8191ZM3.52086 9.76612C3.92675 9.78979 5.09535 10.1266 8.40874 12.0263C12.4047 14.3188 13.166 15.5004 13.2951 15.7646C13.5209 15.4722 13.7185 15.1577 13.8839 14.829C13.7226 14.5164 12.9018 13.3508 9.0168 11.1228C5.464 9.08549 4.39217 8.86466 4.09617 8.86466C4.08053 8.86466 4.06593 8.8657 4.05289 8.86665C3.84899 9.14951 3.67058 9.45198 3.52086 9.76612Z" fill="#101211"/>
<path d="M8.45958 11.9436C5.14722 10.0439 3.96402 9.70108 3.5551 9.66177C3.53541 9.70013 3.51683 9.74047 3.49817 9.77823C3.84505 9.79084 4.96328 10.0666 8.4016 12.0373C12.4903 14.3823 13.187 15.5549 13.2929 15.7899C13.3212 15.7536 13.3494 15.7183 13.3776 15.68C13.1941 15.3412 12.3249 14.1614 8.45958 11.9436Z" fill="#F5E600"/>
<path d="M13.2889 15.8191L13.2789 15.7969C13.184 15.5852 12.5045 14.4094 8.39362 12.052C4.89828 10.0469 3.80476 9.80543 3.49727 9.79386L3.47559 9.79282L3.48466 9.77217C3.50332 9.73286 3.52293 9.69398 3.54159 9.65571L3.54565 9.64612L3.55628 9.64716C3.97219 9.68647 5.1636 10.0364 8.46576 11.93C12.3644 14.1675 13.2194 15.3613 13.3888 15.673L13.3939 15.682L13.3888 15.688C13.3606 15.7263 13.3314 15.7626 13.3041 15.8L13.2889 15.8191ZM3.52086 9.76612C3.92675 9.7898 5.09535 10.1266 8.40874 12.0263C12.4047 14.3188 13.166 15.5004 13.2951 15.7646C13.3173 15.7365 13.3395 15.7082 13.3606 15.68C13.1821 15.3574 12.3119 14.1696 8.4522 11.9572C5.18019 10.0797 3.98679 9.72172 3.56432 9.67843C3.54859 9.70608 3.53442 9.73588 3.52086 9.76612Z" fill="#101211"/>
<path d="M8.95325 11.2025C12.7303 13.3689 13.6449 14.5446 13.8576 14.9157C13.8728 14.8874 13.888 14.8592 13.902 14.829C13.7508 14.5305 12.9502 13.3608 9.02634 11.1092C5.27941 8.95953 4.28723 8.82639 4.04627 8.85213C4.03115 8.87382 4.01552 8.89551 3.99988 8.91719C4.35825 8.93369 5.49722 9.22113 8.95325 11.2025Z" fill="#F5E600"/>
<path d="M13.8576 14.9459L13.8435 14.9226C13.6126 14.5204 12.6759 13.3568 8.94469 11.2165C5.54966 9.26943 4.38805 8.95141 3.99789 8.93369L3.97119 8.93274L3.99892 8.89335C4.0105 8.87719 4.02165 8.86155 4.03322 8.84497L4.03625 8.83987L4.0423 8.83883C4.05888 8.83779 4.07651 8.83581 4.09526 8.83581C4.39376 8.83581 5.47164 9.05664 9.03048 11.098C12.9483 13.3446 13.757 14.5162 13.9122 14.8227L13.9152 14.8288L13.9122 14.8378C13.8981 14.861 13.886 14.8882 13.8719 14.9135L13.8576 14.9459ZM4.02553 8.90605C4.443 8.93482 5.63121 9.2817 8.95921 11.1909C12.6294 13.2972 13.6035 14.4619 13.8556 14.8864C13.8657 14.8672 13.8757 14.8501 13.8838 14.829C13.7225 14.5164 12.9017 13.3508 9.01675 11.1228C5.46395 9.08549 4.39212 8.86466 4.09612 8.86466C4.08048 8.86466 4.06588 8.8657 4.05284 8.86665C4.0442 8.87926 4.03512 8.8924 4.02553 8.90605Z" fill="#101211"/>
<path d="M5.76738 14.5668C6.34667 15.6779 7.34239 16.2406 8.73087 16.2406C10.1187 16.2406 11.1151 15.6779 11.6943 14.5668C12.1269 13.7349 12.1505 12.8889 12.1505 12.8809V8.3398H5.31104V12.8828C5.31104 12.8889 5.33376 13.7359 5.76738 14.5668Z" fill="white"/>
<path d="M12.1505 8.34136V12.8809C12.1505 12.8889 12.1269 13.7359 11.6943 14.5668C11.4412 15.0538 11.0984 15.441 10.6784 15.7183C10.1506 16.0652 9.49619 16.2406 8.73193 16.2406C7.96809 16.2406 7.31217 16.0652 6.78584 15.7183C6.3644 15.44 6.02253 15.0528 5.76999 14.5668C5.33594 13.736 5.31322 12.8889 5.31322 12.8829V8.34136H12.1505ZM12.2085 8.28339H5.25464V12.8829C5.25464 12.8829 5.32574 16.3001 8.73184 16.3001C12.1385 16.3001 12.2095 12.8829 12.2095 12.8829V8.28339H12.2085Z" fill="black"/>
<path d="M5.74163 14.5788C6.14251 15.3511 6.98695 16.2688 8.73086 16.2688C10.4757 16.2688 11.3208 15.3492 11.721 14.5769C12.1566 13.7369 12.1798 12.8909 12.1798 12.8809V8.31112H5.28235V12.8829C5.28235 12.8909 5.30498 13.7399 5.74163 14.5788ZM6.75653 9.78677H10.7051V12.8486C10.6991 12.9373 10.6536 13.4728 10.3789 13.9597C10.1611 14.3489 9.77592 14.7947 8.73078 14.7947C7.68616 14.7947 7.301 14.3489 7.08216 13.9597C6.80837 13.4727 6.76198 12.9373 6.75645 12.8486L6.75653 9.78677Z" fill="black"/>
<path d="M5.74163 14.5788C6.14251 15.3511 6.98695 16.2688 8.73086 16.2688C10.4757 16.2688 11.3208 15.3492 11.721 14.5769C12.1566 13.7369 12.1798 12.8909 12.1798 12.8809V8.31112H5.28235V12.8829C5.28235 12.8909 5.30498 13.7399 5.74163 14.5788ZM6.72171 9.75152H10.7404V12.8507C10.7338 12.9374 10.6884 13.4788 10.4107 13.9759C10.2675 14.232 10.0915 14.4216 9.87372 14.5587C9.58386 14.7382 9.20069 14.8309 8.73078 14.8309C8.26087 14.8309 7.87822 14.7382 7.58888 14.5587C7.37107 14.4206 7.1956 14.232 7.05192 13.9759C6.77416 13.4799 6.72871 12.9373 6.72266 12.8507V9.75152H6.72171Z" fill="#E32121"/>
<path d="M5.74163 14.5788C6.14251 15.3511 6.98695 16.2688 8.73086 16.2688C10.4757 16.2688 11.3208 15.3492 11.721 14.5769C12.1566 13.7369 12.1798 12.8909 12.1798 12.8809V8.31112H5.28235V12.8829C5.28235 12.8909 5.30498 13.7399 5.74163 14.5788ZM5.46084 8.49108H11.9998V12.8789C11.9998 12.9212 11.97 13.7097 11.5623 14.4942C11.0117 15.553 10.0598 16.0913 8.73095 16.0913C7.40753 16.0913 6.45717 15.5568 5.90613 14.5063C5.49419 13.7218 5.463 12.9192 5.46102 12.8788V8.49108H5.46084Z" fill="black"/>
<path d="M5.74163 14.5788C6.14251 15.3511 6.98695 16.2688 8.73086 16.2688C10.4757 16.2688 11.3208 15.3492 11.721 14.5769C12.1566 13.7369 12.1798 12.8909 12.1798 12.8809V8.31112H5.28235V12.8829C5.28235 12.8909 5.30498 13.7399 5.74163 14.5788ZM5.42706 8.45678H12.0341V12.8809C12.033 12.9192 12.0038 13.7188 11.5919 14.5102C11.3484 14.9801 11.0192 15.3532 10.6153 15.6194C10.1072 15.9562 9.47241 16.1256 8.72983 16.1256C7.99071 16.1256 7.35751 15.9562 6.85079 15.6234C6.44594 15.3592 6.1178 14.9881 5.87278 14.5203C5.45782 13.7277 5.42706 12.917 5.42611 12.8807V8.45678H5.42706Z" fill="white"/>
<path d="M9.14823 9.24481L8.73077 9.2423L8.31382 9.24481L8.26941 9.60931H8.73077H9.19256L9.14823 9.24481Z" fill="#F5E600"/>
<path d="M9.20068 9.6164H8.25991C8.24479 9.6164 8.23218 9.62953 8.23218 9.64413C8.23218 9.65874 8.24479 9.67187 8.25991 9.67187H9.20068C9.21632 9.67187 9.22842 9.65874 9.22842 9.64413C9.22842 9.62953 9.21727 9.6164 9.20068 9.6164Z" fill="#F5E600"/>
<path d="M9.17194 9.18683H8.29017C8.28058 9.19184 8.27454 9.20143 8.27454 9.21154C8.27454 9.22718 8.28715 9.23927 8.30227 9.23927H9.15837C9.17401 9.23927 9.18611 9.22614 9.18611 9.21154C9.18706 9.20143 9.18101 9.19184 9.17194 9.18683Z" fill="#F5E600"/>
<path d="M9.2098 8.85308C9.2098 8.81524 9.2098 8.75027 9.2098 8.75027H9.13869V8.80271H9.09022V8.75131H9.05394H9.01765V8.80271H8.96918V8.75027H8.89808V8.85308C8.89808 8.89144 8.94248 8.89343 8.94248 8.89343L8.93445 9.10217H8.84978L8.84123 8.70336C8.84123 8.70336 8.88555 8.70232 8.88555 8.66457C8.88555 8.62517 8.88555 8.55821 8.88555 8.55821H8.81548V8.61169H8.7671V8.56029H8.73081H8.69496V8.61169H8.64606V8.55821H8.57495V8.66457C8.57495 8.70241 8.61928 8.70336 8.61928 8.70336L8.61124 9.10217H8.52657L8.51793 8.89542C8.51793 8.89542 8.56234 8.89343 8.56234 8.85507C8.56234 8.81628 8.56234 8.75019 8.56234 8.75019H8.49132V8.80263H8.44294V8.75122H8.40665H8.37037V8.80263H8.3219V8.75019H8.25183V8.85507C8.25183 8.89334 8.29624 8.89542 8.29624 8.89542L8.2882 9.10217H8.27861C8.26298 9.10217 8.25183 9.11582 8.25183 9.1299C8.25183 9.1445 8.26444 9.15763 8.27861 9.15763H9.18007C9.19666 9.15763 9.20884 9.1445 9.20884 9.1299C9.20884 9.11582 9.19571 9.10217 9.18007 9.10217H9.17299L9.16349 8.89343C9.16435 8.89343 9.2098 8.89144 9.2098 8.85308Z" fill="#F5E600"/>
<path d="M8.38691 8.95944C8.39089 8.94527 8.39754 8.93879 8.40756 8.93879C8.41715 8.93879 8.42423 8.94536 8.42821 8.95944C8.43123 8.97007 8.43123 8.98009 8.43123 8.98009V9.03409H8.38484V8.98009C8.38389 8.98017 8.38389 8.97007 8.38691 8.95944Z" fill="black"/>
<path d="M9.03327 8.95944C9.03733 8.94527 9.04485 8.93879 9.05392 8.93879C9.06351 8.93879 9.07051 8.94536 9.07457 8.95944C9.0776 8.97007 9.07759 8.98009 9.07759 8.98009V9.03409H9.0312V8.98009C9.03025 8.98017 9.03025 8.97007 9.03327 8.95944Z" fill="black"/>
<path d="M8.71018 8.83692C8.71415 8.82025 8.72072 8.8142 8.73083 8.8142C8.74137 8.8142 8.74741 8.82129 8.75147 8.83692C8.7545 8.84902 8.7545 8.8606 8.7545 8.8606V8.92565H8.70715V8.8606C8.70715 8.86163 8.70715 8.84902 8.71018 8.83692Z" fill="black"/>
<path d="M9.20267 9.5897L9.16431 9.26752C9.19257 9.2645 9.2152 9.24031 9.2152 9.21154C9.2152 9.19892 9.21218 9.18985 9.20561 9.18078C9.22427 9.17119 9.23689 9.15253 9.23689 9.12989C9.23689 9.10112 9.2152 9.0765 9.186 9.07443L9.17995 8.90094C9.2006 8.89645 9.22436 8.88228 9.22436 8.85006V8.73558H9.12397V8.78604H9.10332V8.73662H9.00249V8.78604H8.98185V8.73558H8.88258V8.85006C8.88258 8.88228 8.90625 8.89645 8.9269 8.90094L8.92085 9.07339H8.86288L8.85484 8.70983C8.87549 8.70482 8.89916 8.69014 8.89916 8.65791V8.54343H8.79989V8.59484H8.77925V8.54542H8.67842V8.59484H8.65777V8.54343H8.55842V8.65791C8.55842 8.69022 8.58313 8.70482 8.60282 8.70983L8.59479 9.07339H8.53777L8.53068 8.90094C8.55133 8.89645 8.57509 8.88228 8.57509 8.85006V8.73558H8.47573V8.78604H8.455V8.73662H8.35417V8.78604H8.33353V8.73558H8.23426V8.85006C8.23426 8.88228 8.25793 8.89645 8.27763 8.90094L8.27158 9.07443C8.24238 9.07641 8.22121 9.10009 8.22121 9.12989C8.22121 9.15158 8.23331 9.17128 8.25197 9.18078C8.24592 9.18985 8.24238 9.19996 8.24238 9.21154C8.24238 9.23927 8.26458 9.2645 8.29326 9.26752L8.25499 9.5897C8.22527 9.5897 8.20056 9.61441 8.20056 9.64516C8.20056 9.67644 8.22527 9.7021 8.25706 9.7021H9.19784C9.22859 9.7021 9.25477 9.67739 9.25477 9.64516C9.25762 9.61432 9.23395 9.5897 9.20267 9.5897ZM8.73579 9.33655L8.73078 9.33353L8.72568 9.33655C8.59859 9.38692 8.58304 9.53976 8.582 9.58866H8.51591C8.5179 9.53371 8.53863 9.33759 8.72162 9.26847H8.74132C8.92586 9.33655 8.94452 9.53362 8.94651 9.58866H8.8805C8.87852 9.53976 8.86288 9.38597 8.73579 9.33655ZM8.85182 9.58866H8.61034C8.61233 9.54477 8.6265 9.40965 8.73086 9.36429C8.83514 9.40965 8.84975 9.54529 8.85182 9.58866ZM8.65665 9.26847C8.50692 9.35824 8.49025 9.5357 8.48723 9.58866H8.28713L8.32497 9.26847H8.65665ZM8.97329 9.58866C8.9713 9.5357 8.95316 9.35824 8.80439 9.26847H9.13667L9.17494 9.58866H8.97329ZM8.91281 8.85101V8.76435H8.95619V8.81524H9.0323V8.7653H9.07671V8.81524H9.15334V8.76435H9.19671V8.85101C9.19671 8.87269 9.16898 8.87468 9.1644 8.87468H9.16138H8.94357C8.94055 8.87476 8.91281 8.87269 8.91281 8.85101ZM9.15835 9.07443H8.94962L8.95619 8.90397H9.15127L9.15835 9.07443ZM8.5896 8.65895V8.5722H8.63298V8.62421H8.70909V8.57428H8.75341V8.62421H8.83005V8.5722H8.87238V8.65895C8.87238 8.68167 8.84413 8.68262 8.84111 8.68366H8.82797H8.63082H8.62123C8.61734 8.68366 8.5896 8.68271 8.5896 8.65895ZM8.83514 9.07339H8.62537L8.63393 8.71294H8.82806L8.83514 9.07339ZM8.26648 8.85101V8.76435H8.30882V8.81524H8.38493V8.7653H8.42934V8.81524H8.50597V8.76435H8.54926V8.85101C8.54926 8.87269 8.52101 8.87468 8.51695 8.87468H8.51496H8.29819H8.29715C8.29422 8.87476 8.26648 8.87269 8.26648 8.85101ZM8.51202 9.07443H8.30225L8.30882 8.90397H8.50399L8.51202 9.07443ZM8.25283 9.12981C8.25283 9.11676 8.2619 9.10613 8.27452 9.10311C8.2765 9.10311 8.27858 9.10207 8.28056 9.10207H9.18203C9.19861 9.10207 9.20976 9.11572 9.20976 9.12981C9.20976 9.14441 9.19766 9.15754 9.18203 9.15754H8.28056C8.26389 9.1591 8.25283 9.14553 8.25283 9.12981ZM8.27452 9.21154C8.27452 9.19996 8.28056 9.19089 8.29015 9.18683H9.172C9.18108 9.19184 9.18712 9.20143 9.18712 9.21154C9.18712 9.22718 9.17503 9.23927 9.15939 9.23927H8.30329C8.28713 9.24031 8.27452 9.22718 8.27452 9.21154ZM9.20069 9.67281H8.25992C8.2448 9.67281 8.23218 9.65976 8.23218 9.64508C8.23218 9.63099 8.2448 9.61734 8.25992 9.61734H9.20069C9.21633 9.61734 9.22842 9.63099 9.22842 9.64508C9.22842 9.65976 9.21728 9.67281 9.20069 9.67281Z" fill="black"/>
<path d="M6.51707 9.24481L6.10012 9.2423L5.68265 9.24481L5.63928 9.60931H6.10012H6.56139L6.51707 9.24481Z" fill="#F5E600"/>
<path d="M6.57098 9.6164H5.62917C5.61354 9.6164 5.60144 9.62953 5.60144 9.64413C5.60144 9.65874 5.61354 9.67187 5.62917 9.67187H6.57098C6.5861 9.67187 6.59872 9.65874 6.59872 9.64413C6.59872 9.62953 6.5861 9.6164 6.57098 9.6164Z" fill="#F5E600"/>
<path d="M6.54068 9.18683H5.65892C5.64985 9.19184 5.6438 9.20143 5.6438 9.21154C5.6438 9.22718 5.65589 9.23927 5.67153 9.23927H6.52859C6.54422 9.23927 6.55632 9.22614 6.55632 9.21154C6.55632 9.20143 6.55027 9.19184 6.54068 9.18683Z" fill="#F5E600"/>
<path d="M6.57912 8.85308C6.57912 8.81524 6.57912 8.75027 6.57912 8.75027H6.50801V8.80271H6.45955V8.75131H6.42326H6.38697V8.80271H6.3385V8.75027H6.26749V8.85308C6.26749 8.89144 6.31189 8.89343 6.31189 8.89343L6.30334 9.10217H6.21867L6.21064 8.70336C6.21064 8.70336 6.25496 8.70232 6.25496 8.66457C6.25496 8.62517 6.25496 8.55821 6.25496 8.55821H6.18394V8.61169H6.13547V8.56029H6.09919H6.0629V8.61169H6.01452V8.55821H5.94341V8.66457C5.94341 8.70241 5.98877 8.70336 5.98877 8.70336L5.97918 9.10217H5.89451L5.88639 8.89542C5.88639 8.89542 5.9308 8.89343 5.9308 8.85507C5.9308 8.81628 5.9308 8.75019 5.9308 8.75019H5.85969V8.80263H5.81079V8.75122H5.77494H5.73865V8.80263H5.69027V8.75019H5.62012V8.85507C5.62012 8.89334 5.66452 8.89542 5.66452 8.89542L5.65597 9.10217H5.64794C5.6323 9.10217 5.6202 9.11582 5.6202 9.1299C5.6202 9.1445 5.6323 9.15763 5.64794 9.15763H6.55035C6.56599 9.15763 6.57808 9.1445 6.57808 9.1299C6.57808 9.11582 6.56443 9.10217 6.55035 9.10217H6.54171L6.53272 8.89343C6.53367 8.89343 6.57912 8.89144 6.57912 8.85308Z" fill="#F5E600"/>
<path d="M5.75727 8.95944C5.76125 8.94527 5.76738 8.93879 5.77792 8.93879C5.78803 8.93879 5.79451 8.94536 5.79857 8.95944C5.80159 8.97007 5.80159 8.98009 5.80159 8.98009V9.03409H5.7552V8.98009C5.75425 8.98017 5.75425 8.97007 5.75727 8.95944Z" fill="black"/>
<path d="M6.40363 8.95944C6.4077 8.94527 6.41521 8.93879 6.42428 8.93879C6.43336 8.93879 6.44087 8.94536 6.44493 8.95944C6.44796 8.97007 6.44796 8.98009 6.44796 8.98009V9.03409H6.40156V8.98009C6.40061 8.98017 6.40061 8.97007 6.40363 8.95944Z" fill="black"/>
<path d="M6.08045 8.83692C6.08443 8.82025 6.09047 8.8142 6.1011 8.8142C6.11112 8.8142 6.11769 8.82129 6.12175 8.83692C6.12477 8.84902 6.12477 8.8606 6.12477 8.8606V8.92565H6.07838V8.8606C6.07734 8.86163 6.07734 8.84902 6.08045 8.83692Z" fill="black"/>
<path d="M6.57302 9.5897L6.53362 9.26752C6.56239 9.2645 6.58399 9.24031 6.58399 9.21154C6.58399 9.19892 6.58097 9.18985 6.57492 9.18078C6.59462 9.17119 6.60672 9.15253 6.60672 9.12989C6.60672 9.10112 6.58503 9.0765 6.55635 9.07443L6.54926 8.90094C6.56991 8.89645 6.59367 8.88228 6.59367 8.85006V8.73558H6.49328V8.78604H6.47263V8.73662H6.37284V8.78604H6.35219V8.73558H6.25292V8.85006C6.25292 8.88228 6.27659 8.89645 6.29724 8.90094L6.29016 9.07339H6.23219L6.22415 8.70983C6.2448 8.70482 6.26847 8.69014 6.26847 8.65791V8.54343H6.1692V8.59484H6.14855V8.54542H6.04816V8.59484H6.02803V8.54343H5.93075V8.65791C5.93075 8.69022 5.95546 8.70482 5.97516 8.70983L5.96704 9.07339H5.9101L5.90302 8.90094C5.92367 8.89645 5.94734 8.88228 5.94734 8.85006V8.73558H5.84807V8.78604H5.82742V8.73662H5.72659V8.78604H5.70586V8.73558H5.6065V8.85006C5.6065 8.88228 5.63018 8.89645 5.64979 8.90094L5.6427 9.07443C5.6135 9.07641 5.59182 9.10009 5.59182 9.12989C5.59182 9.15158 5.60443 9.17128 5.62309 9.18078C5.61652 9.18985 5.6135 9.19996 5.6135 9.21154C5.6135 9.23927 5.63519 9.2645 5.66439 9.26752L5.62612 9.5897C5.59579 9.5897 5.57117 9.61441 5.57117 9.64516C5.57117 9.67644 5.59588 9.7021 5.62819 9.7021H6.56991C6.60067 9.7021 6.62633 9.67739 6.62633 9.64516C6.62745 9.61432 6.60265 9.5897 6.57302 9.5897ZM6.1051 9.33655L6.10009 9.33353L6.09499 9.33655C5.96695 9.38692 5.95235 9.53976 5.95027 9.58866H5.88522C5.88721 9.53371 5.90794 9.33759 6.09041 9.26847H6.10907C6.29413 9.33655 6.31271 9.53362 6.31478 9.58866H6.24972C6.24782 9.53976 6.23219 9.38597 6.1051 9.33655ZM6.22208 9.58866H5.97904C5.98103 9.54477 5.99572 9.40965 6.10009 9.36429C6.20445 9.40965 6.21957 9.54529 6.22208 9.58866ZM6.02648 9.26847C5.87675 9.35824 5.85956 9.5357 5.85757 9.58866H5.65592L5.6942 9.26847H6.02648ZM6.3426 9.58866C6.34061 9.5357 6.32195 9.35824 6.17318 9.26847H6.50598L6.54425 9.58866H6.3426ZM6.28161 8.85101V8.76435H6.32498V8.81524H6.40161V8.7653H6.44498V8.81524H6.5211V8.76435H6.56499V8.85101C6.56499 8.87269 6.53673 8.87468 6.53371 8.87468H6.52974H6.31297C6.30977 8.87476 6.28161 8.87269 6.28161 8.85101ZM6.52861 9.07443H6.31988L6.32696 8.90397H6.52101L6.52861 9.07443ZM5.9584 8.65895V8.5722H6.00177V8.62421H6.0784V8.57428H6.12177V8.62421H6.19789V8.5722H6.24178V8.65895C6.24178 8.68167 6.21353 8.68262 6.2105 8.68366H6.19685H5.99969H5.98959C5.98665 8.68366 5.9584 8.68271 5.9584 8.65895ZM6.2054 9.07339H5.99468L6.00272 8.71294H6.19685L6.2054 9.07339ZM5.63527 8.85101V8.76435H5.67761V8.81524H5.75424V8.7653H5.79865V8.81524H5.87476V8.76435H5.91805V8.85101C5.91805 8.87269 5.89032 8.87468 5.88729 8.87468H5.8853H5.66854H5.6675C5.66344 8.87476 5.63527 8.87269 5.63527 8.85101ZM5.88228 9.07443H5.67251L5.67959 8.90397H5.87373L5.88228 9.07443ZM5.62214 9.12981C5.62214 9.11676 5.63121 9.10613 5.64383 9.10311C5.64581 9.10311 5.64789 9.10207 5.64987 9.10207H6.55134C6.56697 9.10207 6.57907 9.11572 6.57907 9.12981C6.57907 9.14441 6.56697 9.15754 6.55134 9.15754H5.64987C5.6332 9.1591 5.62214 9.14553 5.62214 9.12981ZM5.64383 9.21154C5.64383 9.19996 5.64987 9.19089 5.65895 9.18683H6.54079C6.55038 9.19184 6.55643 9.20143 6.55643 9.21154C6.55643 9.22718 6.54434 9.23927 6.5287 9.23927H5.67165C5.65592 9.24031 5.64383 9.22718 5.64383 9.21154ZM6.57095 9.67281H5.62914C5.6135 9.67281 5.60141 9.65976 5.60141 9.64508C5.60141 9.63099 5.6135 9.61734 5.62914 9.61734H6.57095C6.58607 9.61734 6.59868 9.63099 6.59868 9.64508C6.59868 9.65976 6.58607 9.67281 6.57095 9.67281Z" fill="black"/>
<path d="M6.51707 11.8982L6.10012 11.8962L5.68265 11.8982L5.63928 12.2638H6.10012H6.56139L6.51707 11.8982Z" fill="#F5E600"/>
<path d="M6.57098 12.2718H5.62917C5.61354 12.2718 5.60144 12.284 5.60144 12.3001C5.60144 12.3142 5.61354 12.3284 5.62917 12.3284H6.57098C6.5861 12.3284 6.59872 12.3132 6.59872 12.3001C6.59872 12.284 6.5861 12.2718 6.57098 12.2718Z" fill="#F5E600"/>
<path d="M6.54068 11.8402H5.65892C5.64985 11.8458 5.6438 11.8548 5.6438 11.8649C5.6438 11.8806 5.65589 11.8932 5.67153 11.8932H6.52859C6.54422 11.8932 6.55632 11.8796 6.55632 11.8649C6.55632 11.8548 6.55027 11.8458 6.54068 11.8402Z" fill="#F5E600"/>
<path d="M6.57912 11.508C6.57912 11.4696 6.57912 11.4036 6.57912 11.4036H6.50801V11.456H6.45955V11.4057H6.42326H6.38697V11.456H6.3385V11.4036H6.26749V11.508L6.31189 11.5473L6.30334 11.7555H6.21867L6.21064 11.3582C6.21064 11.3582 6.25496 11.3572 6.25496 11.3179C6.25496 11.2786 6.25496 11.2126 6.25496 11.2126H6.18394V11.2665H6.13547V11.2136H6.09919H6.0629V11.2665H6.01452V11.2126H5.94341V11.3179C5.94341 11.3582 5.98877 11.3582 5.98877 11.3582L5.97918 11.7555H5.89451L5.88639 11.5493C5.88639 11.5493 5.9308 11.5473 5.9308 11.5089C5.9308 11.4705 5.9308 11.4035 5.9308 11.4035H5.85969V11.457H5.81079V11.4056H5.77494H5.73865V11.457H5.69027V11.4035H5.62012V11.5089C5.62012 11.5482 5.66452 11.5493 5.66452 11.5493L5.65597 11.7555H5.64794C5.6323 11.7555 5.6202 11.7691 5.6202 11.7837C5.6202 11.7978 5.6323 11.8115 5.64794 11.8115H6.55035C6.56599 11.8115 6.57808 11.7978 6.57808 11.7837C6.57808 11.7691 6.56443 11.7555 6.55035 11.7555H6.54171L6.53272 11.5473C6.53367 11.5473 6.57912 11.5463 6.57912 11.508Z" fill="#F5E600"/>
<path d="M5.75727 11.6143C5.76125 11.6007 5.76738 11.5937 5.77792 11.5937C5.78803 11.5937 5.79451 11.6007 5.79857 11.6143C5.80159 11.6244 5.80159 11.635 5.80159 11.635V11.6884H5.7552V11.635C5.75425 11.634 5.75425 11.6235 5.75727 11.6143Z" fill="black"/>
<path d="M6.40363 11.6143C6.4077 11.6007 6.41521 11.5937 6.42428 11.5937C6.43336 11.5937 6.44087 11.6007 6.44493 11.6143C6.44796 11.6244 6.44796 11.635 6.44796 11.635V11.6884H6.40156V11.635C6.40061 11.634 6.40061 11.6235 6.40363 11.6143Z" fill="black"/>
<path d="M6.08045 11.4903C6.08443 11.4747 6.09047 11.4677 6.1011 11.4677C6.11112 11.4677 6.11769 11.4757 6.12175 11.4903C6.12477 11.5029 6.12477 11.514 6.12477 11.514V11.5791H6.07838V11.514C6.07734 11.515 6.07734 11.5029 6.08045 11.4903Z" fill="black"/>
<path d="M6.57302 12.2436L6.53362 11.9209C6.56239 11.9179 6.58399 11.8952 6.58399 11.8649C6.58399 11.8529 6.58097 11.8433 6.57492 11.8342C6.59462 11.8246 6.60672 11.8065 6.60672 11.7838C6.60672 11.7546 6.58503 11.7298 6.55635 11.7279L6.54926 11.5544C6.56991 11.5505 6.59367 11.5358 6.59367 11.5041V11.3891H6.49328V11.441H6.47263V11.3901H6.37284V11.441H6.35219V11.3891H6.25292V11.5041C6.25292 11.5359 6.27659 11.5505 6.29724 11.5544L6.29016 11.7269H6.23219L6.22415 11.3633C6.2448 11.3593 6.26847 11.3447 6.26847 11.313V11.198H6.1692V11.2499H6.14855V11.1995H6.04816V11.2499H6.02803V11.198H5.93075V11.313C5.93075 11.3448 5.95546 11.3594 5.97516 11.3633L5.96704 11.7269H5.9101L5.90302 11.5544C5.92367 11.5505 5.94734 11.5358 5.94734 11.5041V11.3891H5.84807V11.441H5.82742V11.3901H5.72659V11.441H5.70586V11.3891H5.6065V11.5041C5.6065 11.5359 5.63018 11.5505 5.64979 11.5544L5.6427 11.7279C5.6135 11.7299 5.59182 11.7536 5.59182 11.7838C5.59182 11.8055 5.60443 11.8247 5.62309 11.8342C5.61652 11.8433 5.6135 11.8539 5.6135 11.8649C5.6135 11.8942 5.63519 11.9179 5.66439 11.9209L5.62612 12.2436C5.59579 12.2436 5.57117 12.2668 5.57117 12.3001C5.57117 12.3304 5.59588 12.3565 5.62819 12.3565H6.56991C6.60067 12.3565 6.62633 12.3303 6.62633 12.3001C6.62745 12.2677 6.60265 12.2436 6.57302 12.2436ZM6.1051 11.99L6.10009 11.988L6.09499 11.99C5.96695 12.0409 5.95235 12.1932 5.95027 12.2436H5.88522C5.88721 12.1891 5.90794 11.991 6.09041 11.9229H6.10907C6.29413 11.992 6.31271 12.1871 6.31478 12.2436H6.24972C6.24782 12.1932 6.23219 12.0409 6.1051 11.99ZM6.22208 12.2436H5.97904C5.98103 12.1992 5.99572 12.0637 6.10009 12.0182C6.20445 12.0636 6.21957 12.1992 6.22208 12.2436ZM6.02648 11.9219C5.87675 12.0116 5.85956 12.1911 5.85757 12.2436H5.65592L5.6942 11.9219H6.02648ZM6.3426 12.2436C6.34061 12.1912 6.32195 12.0116 6.17318 11.9219H6.50598L6.54425 12.2436H6.3426ZM6.28161 11.5049V11.4183H6.32498V11.4697H6.40161V11.4203H6.44498V11.4697H6.5211V11.4183H6.56499V11.5049C6.56499 11.5266 6.53673 11.5286 6.53371 11.5286H6.52974H6.31297C6.30977 11.5296 6.28161 11.5277 6.28161 11.5049ZM6.52861 11.7278H6.31988L6.32696 11.5574H6.52101L6.52861 11.7278ZM5.9584 11.3149V11.2281H6.00177V11.2795H6.0784V11.2292H6.12177V11.2795H6.19789V11.2281H6.24178V11.3149C6.24178 11.3365 6.21353 11.3385 6.2105 11.3385L6.19685 11.3396H5.99969L5.98959 11.3385C5.98665 11.3385 5.9584 11.3365 5.9584 11.3149ZM6.2054 11.7268H5.99468L6.00272 11.3673H6.19685L6.2054 11.7268ZM5.63527 11.5049V11.4183H5.67761V11.4697H5.75424V11.4203H5.79865V11.4697H5.87476V11.4183H5.91805V11.5049C5.91805 11.5266 5.89032 11.5286 5.88729 11.5286H5.8853H5.66854H5.6675C5.66344 11.5296 5.63527 11.5277 5.63527 11.5049ZM5.88228 11.7278H5.67251L5.67959 11.5574H5.87373L5.88228 11.7278ZM5.62214 11.7848C5.62214 11.7711 5.63121 11.7621 5.64383 11.7576C5.64581 11.7576 5.64789 11.7565 5.64987 11.7565H6.55134C6.56697 11.7565 6.57907 11.7702 6.57907 11.7848C6.57907 11.7989 6.56697 11.8125 6.55134 11.8125H5.64987C5.6332 11.8125 5.62214 11.7989 5.62214 11.7848ZM5.64383 11.8659C5.64383 11.8548 5.64987 11.8458 5.65895 11.8412H6.54079C6.55038 11.8467 6.55643 11.8558 6.55643 11.8659C6.55643 11.8815 6.54434 11.8942 6.5287 11.8942H5.67165C5.65592 11.8942 5.64383 11.8805 5.64383 11.8659ZM6.57095 12.3283H5.62914C5.6135 12.3283 5.60141 12.3141 5.60141 12.3011C5.60141 12.284 5.6135 12.2727 5.62914 12.2727H6.57095C6.58607 12.2727 6.59868 12.286 6.59868 12.3011C6.59868 12.3141 6.58607 12.3283 6.57095 12.3283Z" fill="black"/>
<path d="M7.09233 14.3913L6.7959 14.6837L6.50293 14.9802L6.72981 15.2705L7.055 14.9439L7.38124 14.6192L7.09233 14.3913Z" fill="#F5E600"/>
<path d="M7.39381 14.6172L6.72778 15.2827C6.71672 15.2927 6.71672 15.3109 6.72778 15.3231C6.73935 15.3331 6.75655 15.3331 6.76812 15.3231L7.43415 14.6575C7.44521 14.6454 7.44521 14.6273 7.43415 14.6172C7.42249 14.6051 7.40538 14.6051 7.39381 14.6172Z" fill="#F5E600"/>
<path d="M7.06858 14.3329L6.44497 14.958C6.44195 14.9661 6.44393 14.9782 6.45102 14.9852C6.46156 14.9963 6.48022 14.9963 6.49136 14.9852L7.09631 14.3782C7.10798 14.3681 7.10798 14.351 7.09631 14.3399C7.09027 14.3329 7.0786 14.3308 7.06858 14.3329Z" fill="#F5E600"/>
<path d="M6.85989 14.0707C6.83311 14.0444 6.78775 13.998 6.78775 13.998L6.73686 14.0484L6.77418 14.0847L6.73937 14.1189L6.70308 14.0827L6.67733 14.1089L6.65116 14.1352L6.68744 14.1715L6.65366 14.2047L6.61634 14.1665L6.56692 14.218C6.56692 14.218 6.61228 14.2643 6.64001 14.2895C6.66671 14.3167 6.69997 14.2875 6.69997 14.2875L6.84218 14.4398L6.78274 14.4993L6.49538 14.2239C6.49538 14.2239 6.52666 14.1927 6.49841 14.1634C6.47067 14.1373 6.42428 14.0889 6.42428 14.0889L6.37391 14.1393L6.41175 14.1776L6.37797 14.2118L6.34065 14.1755L6.31594 14.1996L6.29028 14.2259L6.32708 14.2622L6.2933 14.2955L6.25494 14.2603L6.20552 14.3087C6.20552 14.3087 6.25192 14.3571 6.27965 14.3824C6.30738 14.4105 6.33961 14.3804 6.33961 14.3804L6.61539 14.6667L6.55534 14.7272L6.40363 14.586C6.40363 14.586 6.43439 14.5537 6.40665 14.5245C6.37892 14.4993 6.33253 14.4529 6.33253 14.4529L6.28259 14.5013L6.32086 14.5396L6.28613 14.5729L6.24984 14.5376L6.22418 14.5629L6.19896 14.587L6.23524 14.6233L6.20146 14.6575L6.16414 14.6213L6.11377 14.6717C6.11377 14.6717 6.16016 14.718 6.1879 14.7443C6.21563 14.7715 6.24786 14.7423 6.24786 14.7423L6.38808 14.8925L6.38203 14.8985C6.37192 14.9116 6.37192 14.9288 6.38203 14.9389C6.39214 14.952 6.4108 14.952 6.42134 14.9389L7.05912 14.3027C7.06975 14.2916 7.06975 14.2745 7.05912 14.2623C7.04806 14.2512 7.03035 14.2512 7.01929 14.2623L7.01273 14.2683L6.85998 14.1261C6.85687 14.1312 6.88659 14.0989 6.85989 14.0707Z" fill="#F5E600"/>
<path d="M6.35429 14.7281C6.34772 14.7159 6.34772 14.7059 6.35429 14.6999C6.36137 14.6918 6.37045 14.6918 6.38306 14.6999C6.39213 14.7039 6.39965 14.711 6.39965 14.713L6.43801 14.7483L6.40475 14.7825L6.36647 14.7442C6.36535 14.7442 6.3593 14.7362 6.35429 14.7281Z" fill="black"/>
<path d="M6.81142 14.2703C6.80537 14.2582 6.80537 14.2481 6.81142 14.2421C6.81747 14.2361 6.8281 14.2361 6.83915 14.2421C6.84874 14.2461 6.85574 14.2542 6.85574 14.2542L6.89402 14.2925L6.86075 14.3247L6.82239 14.2865C6.82257 14.2865 6.81548 14.2803 6.81142 14.2703Z" fill="black"/>
<path d="M6.49543 14.4135C6.48739 14.3994 6.48636 14.3872 6.4924 14.3813C6.49949 14.3752 6.51012 14.3752 6.52368 14.3832C6.53379 14.3892 6.54286 14.3994 6.54286 14.3994L6.58874 14.4438L6.55547 14.478L6.51012 14.4316C6.51003 14.4316 6.50191 14.4236 6.49543 14.4135Z" fill="black"/>
<path d="M7.37521 14.595L7.12111 14.3953C7.13978 14.3742 7.13874 14.3409 7.11809 14.3216C7.11005 14.3126 7.10046 14.3065 7.09036 14.3045C7.0964 14.2844 7.09234 14.2622 7.07671 14.246C7.05606 14.2259 7.02331 14.2259 7.00163 14.2441L6.87454 14.1271C6.8856 14.1089 6.8932 14.0827 6.87048 14.0585L6.78883 13.9788L6.71876 14.0484L6.75462 14.0847L6.74045 14.0988L6.7052 14.0636L6.6341 14.1352L6.66883 14.1694L6.65475 14.1835L6.61846 14.1472L6.54839 14.2178L6.63004 14.2985C6.65276 14.3226 6.67945 14.3146 6.69708 14.3044L6.81354 14.4315L6.7732 14.4719L6.51107 14.2199C6.52264 14.2036 6.52973 14.1755 6.50701 14.1543L6.42536 14.0716L6.35529 14.1412L6.39106 14.1775L6.37689 14.1926L6.34164 14.1583L6.27054 14.228L6.30536 14.2622L6.29119 14.2794L6.2549 14.243L6.18483 14.3106L6.26648 14.3933C6.2892 14.4155 6.3159 14.4084 6.33352 14.3973L6.58407 14.6594L6.54321 14.6998L6.4162 14.5838C6.42631 14.5667 6.43435 14.5394 6.41163 14.5183L6.3305 14.4376L6.26095 14.5051L6.29724 14.5414L6.28264 14.5585L6.24782 14.5222L6.17619 14.5918L6.21153 14.6282L6.19693 14.6433L6.16116 14.607L6.09058 14.6766L6.17222 14.7572C6.19494 14.7784 6.22216 14.7744 6.23926 14.7613L6.35625 14.8884C6.33758 14.9096 6.33862 14.9458 6.35927 14.964C6.37491 14.9811 6.39754 14.9852 6.41724 14.9791C6.41923 14.9903 6.42433 15.0004 6.43236 15.0063C6.45301 15.0275 6.48532 15.0275 6.50796 15.0114L6.70805 15.2646C6.6874 15.2868 6.6874 15.322 6.70909 15.3412C6.73077 15.3634 6.76706 15.3634 6.78875 15.3412L7.45478 14.6757C7.47646 14.6535 7.47646 14.6193 7.45478 14.5971C7.43214 14.5748 7.3968 14.5748 7.37521 14.595ZM6.86598 14.7463L6.86097 14.7503L6.85899 14.7544C6.80456 14.8793 6.90236 15.0005 6.93562 15.0347L6.88923 15.0811C6.8519 15.0407 6.72784 14.8864 6.80758 14.71L6.82071 14.6958C7.00068 14.6151 7.15343 14.7402 7.19274 14.7765L7.14634 14.8229C7.11101 14.7906 6.99204 14.6918 6.86598 14.7463ZM7.12768 14.843L6.95627 15.0144C6.92603 14.9821 6.84136 14.8773 6.88266 14.7705C6.98901 14.7301 7.09433 14.8148 7.12768 14.843ZM6.76309 14.7544C6.72075 14.9237 6.83419 15.0628 6.87048 15.1013L6.72784 15.2444L6.52869 14.9903L6.76309 14.7544ZM7.2133 14.7583C7.17502 14.722 7.03636 14.609 6.86745 14.6514L7.10237 14.4145L7.35551 14.6131L7.2133 14.7583ZM6.64818 14.2784L6.58666 14.218L6.61639 14.1876L6.65267 14.2239L6.7071 14.1695L6.67237 14.1353L6.70313 14.103L6.73846 14.1393L6.79186 14.0848L6.75557 14.0485L6.78581 14.0182L6.8468 14.0787C6.86296 14.0949 6.84482 14.117 6.84223 14.119L6.8392 14.121L6.68637 14.2743C6.68447 14.2784 6.66382 14.2945 6.64818 14.2784ZM6.97994 14.2622L6.8322 14.4124L6.71678 14.2853L6.85389 14.1482L6.97994 14.2622ZM6.28471 14.3731L6.22319 14.3106L6.25292 14.2823L6.2892 14.3166L6.34268 14.2621L6.30786 14.2279L6.33862 14.1976L6.37396 14.2319L6.42839 14.1774L6.3921 14.1411L6.42234 14.1108L6.48437 14.1734C6.50096 14.1895 6.48238 14.2097 6.47884 14.2117L6.46977 14.2217L6.33059 14.3609L6.32307 14.3698C6.321 14.3711 6.30026 14.3893 6.28471 14.3731ZM6.75047 14.4901L6.60178 14.6394L6.35322 14.3793L6.49033 14.2421L6.75047 14.4901ZM6.19088 14.7362L6.12885 14.6757L6.15909 14.6454L6.19486 14.6817L6.2498 14.6273L6.21447 14.5909L6.24574 14.5607L6.28056 14.5949L6.33551 14.5405L6.29922 14.5042L6.32946 14.4759L6.39098 14.5375C6.40765 14.5536 6.38899 14.5727 6.387 14.5748L6.38597 14.5768L6.23218 14.73L6.23114 14.7319C6.22821 14.7341 6.20756 14.7523 6.19088 14.7362ZM6.52213 14.72L6.37491 14.8672L6.25896 14.7422L6.39659 14.6051L6.52213 14.72ZM6.37897 14.9439C6.36938 14.9338 6.36843 14.9197 6.37594 14.9096C6.37689 14.9077 6.37793 14.9056 6.37897 14.9036L7.01727 14.2663C7.02737 14.2563 7.04603 14.2563 7.05709 14.2663C7.06772 14.2795 7.06772 14.2967 7.05709 14.3067L6.41931 14.9439C6.4067 14.956 6.38908 14.956 6.37897 14.9439ZM6.45206 14.9862C6.44497 14.9782 6.44299 14.9661 6.44601 14.958L7.06962 14.3338C7.07973 14.3318 7.09131 14.3338 7.09839 14.3429C7.10997 14.3529 7.10997 14.37 7.09839 14.3802L6.49344 14.9882C6.48126 14.9963 6.4626 14.9963 6.45206 14.9862ZM7.43421 14.6575L6.76818 15.323C6.75661 15.333 6.73941 15.333 6.72784 15.323C6.71678 15.3108 6.71678 15.2926 6.72784 15.2826L7.39387 14.6171C7.40544 14.605 7.42264 14.605 7.43421 14.6171C7.44424 14.6273 7.44424 14.6454 7.43421 14.6575Z" fill="black"/>
<path d="M11.779 9.24481L11.3606 9.2423L10.9436 9.24481L10.9003 9.60931H11.3606H11.8224L11.779 9.24481Z" fill="#F5E600"/>
<path d="M11.8315 9.6164H10.8902C10.8746 9.6164 10.8619 9.62953 10.8619 9.64413C10.8619 9.65874 10.8746 9.67187 10.8902 9.67187H11.8315C11.8471 9.67187 11.8597 9.65874 11.8597 9.64413C11.8597 9.62953 11.8471 9.6164 11.8315 9.6164Z" fill="#F5E600"/>
<path d="M11.8028 9.18683H10.9209C10.9118 9.19184 10.9053 9.20143 10.9053 9.21154C10.9053 9.22718 10.9179 9.23927 10.9335 9.23927H11.7901C11.8067 9.23927 11.8184 9.22614 11.8184 9.21154C11.8184 9.20143 11.8118 9.19184 11.8028 9.18683Z" fill="#F5E600"/>
<path d="M11.8411 8.85308C11.8411 8.81524 11.8411 8.75027 11.8411 8.75027H11.7695V8.80271H11.721V8.75131H11.6847H11.649V8.80271H11.6005V8.75027H11.5299V8.85308C11.5299 8.89144 11.5743 8.89343 11.5743 8.89343L11.5663 9.10217H11.4816L11.4725 8.70336C11.4725 8.70336 11.5179 8.70232 11.5179 8.66457C11.5179 8.62517 11.5179 8.55821 11.5179 8.55821H11.4463V8.61169H11.3979V8.56029H11.3621H11.3268V8.61169H11.2774V8.55821H11.2068V8.66457C11.2068 8.70241 11.2511 8.70336 11.2511 8.70336L11.2431 9.10217H11.1584L11.1504 8.89542C11.1504 8.89542 11.1948 8.89343 11.1948 8.85507C11.1948 8.81628 11.1948 8.75019 11.1948 8.75019H11.1232V8.80263H11.0748V8.75122H11.0385H11.0026V8.80263H10.9543V8.75019H10.8837V8.85507C10.8837 8.89334 10.9281 8.89542 10.9281 8.89542L10.92 9.10217H10.9119C10.8963 9.10217 10.8837 9.11582 10.8837 9.1299C10.8837 9.1445 10.8963 9.15763 10.9119 9.15763H11.8134C11.8285 9.15763 11.8411 9.1445 11.8411 9.1299C11.8411 9.11582 11.8285 9.10217 11.8134 9.10217H11.8047L11.7967 8.89343C11.7957 8.89343 11.8411 8.89144 11.8411 8.85308Z" fill="#F5E600"/>
<path d="M11.0183 8.95944C11.0222 8.94527 11.0284 8.93879 11.0384 8.93879C11.049 8.93879 11.0551 8.94536 11.059 8.95944C11.0626 8.97007 11.0626 8.98009 11.0626 8.98009V9.03409H11.0157V8.98009C11.0147 8.98017 11.0147 8.97007 11.0183 8.95944Z" fill="black"/>
<path d="M11.6645 8.95944C11.6686 8.94527 11.6746 8.93879 11.6846 8.93879C11.6942 8.93879 11.7012 8.94536 11.7053 8.95944C11.7088 8.97007 11.7088 8.98009 11.7088 8.98009V9.03409H11.6619V8.98009C11.661 8.98017 11.661 8.97007 11.6645 8.95944Z" fill="black"/>
<path d="M11.3415 8.83692C11.3455 8.82025 11.3525 8.8142 11.3621 8.8142C11.3712 8.8142 11.3783 8.82129 11.3823 8.83692C11.3858 8.84902 11.3858 8.8606 11.3858 8.8606V8.92565H11.339V8.8606C11.3379 8.86163 11.3379 8.84902 11.3415 8.83692Z" fill="black"/>
<path d="M11.8335 9.5897L11.7956 9.26752C11.8234 9.2645 11.846 9.24031 11.846 9.21154C11.846 9.19892 11.843 9.18985 11.8369 9.18078C11.8551 9.17119 11.8687 9.15253 11.8687 9.12989C11.8687 9.10112 11.846 9.0765 11.8183 9.07443L11.8108 8.90094C11.8315 8.89645 11.8552 8.88228 11.8552 8.85006V8.73558H11.7564V8.78604H11.7357V8.73662H11.6354V8.78604H11.6148V8.73558H11.516V8.85006C11.516 8.88228 11.5396 8.89645 11.5604 8.90094L11.5528 9.07339H11.4963L11.4868 8.70983C11.5075 8.70482 11.5322 8.69014 11.5322 8.65791V8.54343H11.4324V8.59484H11.4118V8.54542H11.3104V8.59484H11.2898V8.54343H11.1909V8.65791C11.1909 8.69022 11.2146 8.70482 11.2353 8.70983L11.2268 9.07339H11.1703L11.1628 8.90094C11.1834 8.89645 11.2072 8.88228 11.2072 8.85006V8.73558H11.1083V8.78604H11.0877V8.73662H10.9874V8.78604H10.9667V8.73558H10.8675V8.85006C10.8675 8.88228 10.8917 8.89645 10.9123 8.90094L10.9048 9.07443C10.876 9.07641 10.8544 9.10009 10.8544 9.12989C10.8544 9.15158 10.8665 9.17128 10.8862 9.18078C10.8802 9.18985 10.8771 9.19996 10.8771 9.21154C10.8771 9.23927 10.8988 9.2645 10.9275 9.26752L10.8897 9.5897C10.8593 9.5897 10.8347 9.61441 10.8347 9.64516C10.8347 9.67644 10.8604 9.7021 10.8917 9.7021H11.8329C11.8642 9.7021 11.8899 9.67739 11.8899 9.64516C11.8884 9.61432 11.8647 9.5897 11.8335 9.5897ZM11.3671 9.33655L11.3616 9.33353L11.3565 9.33655C11.2294 9.38692 11.2143 9.53976 11.2118 9.58866H11.1467C11.1492 9.53371 11.1684 9.33759 11.3524 9.26847H11.3711C11.5571 9.33655 11.5752 9.53362 11.5763 9.58866H11.5112C11.5093 9.53976 11.4942 9.38597 11.3671 9.33655ZM11.4816 9.58866H11.2401C11.2421 9.54477 11.2567 9.40965 11.3606 9.36429C11.466 9.40965 11.4805 9.54529 11.4816 9.58866ZM11.2875 9.26847C11.1378 9.35824 11.1201 9.5357 11.1181 9.58866H10.917L10.9552 9.26847H11.2875ZM11.6046 9.58866C11.6026 9.5357 11.5839 9.35824 11.4352 9.26847H11.7675L11.8057 9.58866H11.6046ZM11.5436 8.85101V8.76435H11.5859V8.81524H11.6635V8.7653H11.7069V8.81524H11.783V8.76435H11.8264V8.85101C11.8264 8.87269 11.7986 8.87468 11.7947 8.87468H11.7911H11.5744C11.5703 8.87476 11.5436 8.87269 11.5436 8.85101ZM11.7891 9.07443H11.5799L11.5859 8.90397H11.781L11.7891 9.07443ZM11.2204 8.65895V8.5722H11.2627V8.62421H11.3388V8.57428H11.3832V8.62421H11.4599V8.5722H11.5033V8.65895C11.5033 8.68167 11.4755 8.68262 11.4715 8.68366H11.4588H11.2617H11.2511C11.2472 8.68366 11.2204 8.68271 11.2204 8.65895ZM11.467 9.07339H11.2568L11.2648 8.71294H11.4589L11.467 9.07339ZM10.8973 8.85101V8.76435H10.9396V8.81524H11.0168V8.7653H11.0601V8.81524H11.1368V8.76435H11.18V8.85101C11.18 8.87269 11.1523 8.87468 11.1493 8.87468H11.1473H10.93H10.929C10.924 8.87476 10.8973 8.87269 10.8973 8.85101ZM11.1428 9.07443H10.9336L10.9406 8.90397H11.1348L11.1428 9.07443ZM10.8827 9.12981C10.8827 9.11676 10.8923 9.10613 10.9044 9.10311C10.9063 9.10311 10.9084 9.10207 10.9104 9.10207H11.8119C11.8275 9.10207 11.8401 9.11572 11.8401 9.12981C11.8401 9.14441 11.8275 9.15754 11.8119 9.15754H10.9104C10.8953 9.1591 10.8827 9.14553 10.8827 9.12981ZM10.9044 9.21154C10.9044 9.19996 10.9104 9.19089 10.92 9.18683H11.8018C11.8109 9.19184 11.8175 9.20143 11.8175 9.21154C11.8175 9.22718 11.8049 9.23927 11.7892 9.23927H10.9326C10.9179 9.24031 10.9044 9.22718 10.9044 9.21154ZM11.8315 9.67281H10.8902C10.8745 9.67281 10.8619 9.65976 10.8619 9.64508C10.8619 9.63099 10.8745 9.61734 10.8902 9.61734H11.8315C11.8471 9.61734 11.8597 9.63099 11.8597 9.64508C11.8597 9.65976 11.8471 9.67281 11.8315 9.67281Z" fill="black"/>
<path d="M11.779 11.8982L11.3606 11.8962L10.9436 11.8982L10.9003 12.2638H11.3606H11.8224L11.779 11.8982Z" fill="#F5E600"/>
<path d="M11.8315 12.2718H10.8902C10.8746 12.2718 10.8619 12.284 10.8619 12.3001C10.8619 12.3142 10.8746 12.3284 10.8902 12.3284H11.8315C11.8471 12.3284 11.8597 12.3132 11.8597 12.3001C11.8607 12.284 11.8471 12.2718 11.8315 12.2718Z" fill="#F5E600"/>
<path d="M11.8028 11.8402H10.9209C10.9118 11.8458 10.9053 11.8548 10.9053 11.8649C10.9053 11.8806 10.9179 11.8932 10.9335 11.8932H11.7901C11.8067 11.8932 11.8184 11.8796 11.8184 11.8649C11.8184 11.8548 11.8118 11.8458 11.8028 11.8402Z" fill="#F5E600"/>
<path d="M11.8411 11.508C11.8411 11.4696 11.8411 11.4036 11.8411 11.4036H11.7695V11.456H11.721V11.4057H11.6847H11.649V11.456H11.6005V11.4036H11.5299V11.508L11.5743 11.5473L11.5663 11.7555H11.4816L11.4725 11.3582C11.4725 11.3582 11.5179 11.3572 11.5179 11.3179C11.5179 11.2786 11.5179 11.2126 11.5179 11.2126H11.4463V11.2665H11.3979V11.2136H11.3621H11.3268V11.2665H11.2774V11.2126H11.2068V11.3179C11.2068 11.3582 11.2511 11.3582 11.2511 11.3582L11.2431 11.7555H11.1584L11.1504 11.5493C11.1504 11.5493 11.1948 11.5473 11.1948 11.5089C11.1948 11.4705 11.1948 11.4035 11.1948 11.4035H11.1232V11.457H11.0748V11.4056H11.0385H11.0026V11.457H10.9543V11.4035H10.8837V11.5089C10.8837 11.5482 10.9281 11.5493 10.9281 11.5493L10.92 11.7555H10.9119C10.8963 11.7555 10.8837 11.7691 10.8837 11.7837C10.8837 11.7978 10.8963 11.8115 10.9119 11.8115H11.8134C11.8285 11.8115 11.8411 11.7978 11.8411 11.7837C11.8411 11.7691 11.8285 11.7555 11.8134 11.7555H11.8047L11.7967 11.5473C11.7957 11.5473 11.8411 11.5463 11.8411 11.508Z" fill="#F5E600"/>
<path d="M11.0183 11.6143C11.0222 11.6007 11.0284 11.5937 11.0384 11.5937C11.049 11.5937 11.0551 11.6007 11.059 11.6143C11.0626 11.6244 11.0626 11.635 11.0626 11.635V11.6884H11.0157V11.635C11.0147 11.634 11.0147 11.6235 11.0183 11.6143Z" fill="black"/>
<path d="M11.6645 11.6143C11.6686 11.6007 11.6746 11.5937 11.6846 11.5937C11.6942 11.5937 11.7012 11.6007 11.7053 11.6143C11.7088 11.6244 11.7088 11.635 11.7088 11.635V11.6884H11.6619V11.635C11.661 11.634 11.661 11.6235 11.6645 11.6143Z" fill="black"/>
<path d="M11.3415 11.4903C11.3455 11.4747 11.3525 11.4677 11.3621 11.4677C11.3712 11.4677 11.3783 11.4757 11.3823 11.4903C11.3858 11.5029 11.3858 11.514 11.3858 11.514V11.5791H11.339V11.514C11.3379 11.515 11.3379 11.5029 11.3415 11.4903Z" fill="black"/>
<path d="M11.8335 12.2436L11.7956 11.9209C11.8234 11.9179 11.846 11.8952 11.846 11.8649C11.846 11.8529 11.843 11.8433 11.8369 11.8342C11.8551 11.8246 11.8687 11.8065 11.8687 11.7838C11.8687 11.7546 11.846 11.7298 11.8183 11.7279L11.8108 11.5544C11.8315 11.5505 11.8552 11.5358 11.8552 11.5041V11.3891H11.7564V11.441H11.7357V11.3901H11.6354V11.441H11.6148V11.3891H11.516V11.5041C11.516 11.5359 11.5396 11.5505 11.5604 11.5544L11.5528 11.7269H11.4963L11.4868 11.3633C11.5075 11.3593 11.5322 11.3447 11.5322 11.313V11.198H11.4324V11.2499H11.4118V11.1995H11.3104V11.2499H11.2898V11.198H11.1909V11.313C11.1909 11.3448 11.2146 11.3594 11.2353 11.3633L11.2268 11.7269H11.1703L11.1628 11.5544C11.1834 11.5505 11.2072 11.5358 11.2072 11.5041V11.3891H11.1083V11.441H11.0877V11.3901H10.9874V11.441H10.9667V11.3891H10.8675V11.5041C10.8675 11.5359 10.8917 11.5505 10.9123 11.5544L10.9048 11.7279C10.876 11.7299 10.8544 11.7536 10.8544 11.7838C10.8544 11.8055 10.8665 11.8247 10.8862 11.8342C10.8802 11.8433 10.8771 11.8539 10.8771 11.8649C10.8771 11.8942 10.8988 11.9179 10.9275 11.9209L10.8897 12.2436C10.8593 12.2436 10.8347 12.2668 10.8347 12.3001C10.8347 12.3304 10.8604 12.3565 10.8917 12.3565H11.8329C11.8642 12.3565 11.8899 12.3303 11.8899 12.3001C11.8884 12.2677 11.8647 12.2436 11.8335 12.2436ZM11.3671 11.99L11.3616 11.988L11.3565 11.99C11.2294 12.0409 11.2143 12.1932 11.2118 12.2436H11.1467C11.1492 12.1891 11.1684 11.991 11.3524 11.9229H11.3711C11.5571 11.992 11.5752 12.1871 11.5763 12.2436H11.5112C11.5093 12.1932 11.4942 12.0409 11.3671 11.99ZM11.4816 12.2436H11.2401C11.2421 12.1992 11.2567 12.0637 11.3606 12.0182C11.466 12.0636 11.4805 12.1992 11.4816 12.2436ZM11.2875 11.9219C11.1378 12.0116 11.1201 12.1911 11.1181 12.2436H10.917L10.9552 11.9219H11.2875ZM11.6046 12.2436C11.6026 12.1912 11.5839 12.0116 11.4352 11.9219H11.7675L11.8057 12.2436H11.6046ZM11.5436 11.5049V11.4183H11.5859V11.4697H11.6635V11.4203H11.7069V11.4697H11.783V11.4183H11.8264V11.5049C11.8264 11.5266 11.7986 11.5286 11.7947 11.5286H11.7911H11.5744C11.5703 11.5296 11.5436 11.5277 11.5436 11.5049ZM11.7891 11.7278H11.5799L11.5859 11.5574H11.781L11.7891 11.7278ZM11.2204 11.3149V11.2281H11.2627V11.2795H11.3388V11.2292H11.3832V11.2795H11.4599V11.2281H11.5033V11.3149C11.5033 11.3365 11.4755 11.3385 11.4715 11.3385L11.4588 11.3396H11.2617L11.2511 11.3385C11.2472 11.3385 11.2204 11.3365 11.2204 11.3149ZM11.467 11.7268H11.2568L11.2648 11.3673H11.4589L11.467 11.7268ZM10.8973 11.5049V11.4183H10.9396V11.4697H11.0168V11.4203H11.0601V11.4697H11.1368V11.4183H11.18V11.5049C11.18 11.5266 11.1523 11.5286 11.1493 11.5286H11.1473H10.93H10.929C10.924 11.5296 10.8973 11.5277 10.8973 11.5049ZM11.1428 11.7278H10.9336L10.9406 11.5574H11.1348L11.1428 11.7278ZM10.8827 11.7848C10.8827 11.7711 10.8923 11.7621 10.9044 11.7576C10.9063 11.7576 10.9084 11.7565 10.9104 11.7565H11.8119C11.8275 11.7565 11.8401 11.7702 11.8401 11.7848C11.8401 11.7989 11.8275 11.8125 11.8119 11.8125H10.9104C10.8953 11.8125 10.8827 11.7989 10.8827 11.7848ZM10.9044 11.8659C10.9044 11.8548 10.9104 11.8458 10.92 11.8412H11.8018C11.8109 11.8467 11.8175 11.8558 11.8175 11.8659C11.8175 11.8815 11.8049 11.8942 11.7892 11.8942H10.9326C10.9179 11.8942 10.9044 11.8805 10.9044 11.8659ZM11.8315 12.3283H10.8902C10.8745 12.3283 10.8619 12.3141 10.8619 12.3011C10.8619 12.284 10.8745 12.2727 10.8902 12.2727H11.8315C11.8471 12.2727 11.8597 12.286 11.8597 12.3011C11.8607 12.3141 11.8471 12.3283 11.8315 12.3283Z" fill="black"/>
<path d="M10.9593 14.9802L10.6648 14.6837L10.3683 14.3913L10.0804 14.6192L10.4056 14.9439L10.7319 15.2705L10.9593 14.9802Z" fill="#F5E600"/>
<path d="M10.733 15.2827L10.067 14.6172C10.0569 14.6051 10.0382 14.6051 10.0267 14.6172C10.0155 14.6273 10.0155 14.6455 10.0267 14.6555L10.6926 15.322C10.7042 15.3331 10.7218 15.3331 10.733 15.322C10.7445 15.3109 10.7445 15.2927 10.733 15.2827Z" fill="#F5E600"/>
<path d="M11.0157 14.958L10.3921 14.3329C10.383 14.3309 10.3715 14.3329 10.3644 14.341C10.3533 14.351 10.3533 14.3692 10.3644 14.3793L10.9694 14.9862C10.981 14.9963 10.9986 14.9963 11.0098 14.9862C11.0182 14.9782 11.0203 14.9661 11.0157 14.958Z" fill="#F5E600"/>
<path d="M11.2785 14.7483C11.3062 14.722 11.3516 14.6756 11.3516 14.6756L11.3021 14.6252L11.2648 14.6615L11.2295 14.6273L11.2658 14.5909L11.2411 14.5668L11.2154 14.5416L11.1791 14.5768L11.1439 14.5436L11.1821 14.5073L11.1318 14.4568C11.1318 14.4568 11.0854 14.5032 11.0582 14.5284C11.0315 14.5546 11.0617 14.59 11.0617 14.59L10.9084 14.7321L10.849 14.6707L11.1243 14.3852C11.1243 14.3852 11.1566 14.4145 11.1842 14.3872C11.2125 14.361 11.2589 14.3126 11.2589 14.3126L11.2079 14.2642L11.1711 14.3006L11.1369 14.2663L11.1742 14.23L11.1484 14.2037L11.1232 14.1795L11.0864 14.2159L11.0522 14.1816L11.0905 14.1433L11.0411 14.0929C11.0411 14.0929 10.9941 14.1413 10.9664 14.1675C10.9397 14.1958 10.9694 14.228 10.9694 14.228L10.6826 14.5033L10.6226 14.4439L10.7633 14.2916C10.7633 14.2916 10.7951 14.3218 10.8227 14.2967C10.851 14.2684 10.8974 14.222 10.8974 14.222L10.848 14.1717L10.8106 14.209L10.7763 14.1757L10.8126 14.1393L10.787 14.1132L10.7612 14.0869L10.7249 14.1232L10.6906 14.089L10.728 14.0527L10.6785 14.0022C10.6785 14.0022 10.6321 14.0486 10.6039 14.0768C10.5772 14.1031 10.6069 14.1354 10.6069 14.1354L10.4542 14.2776L10.4481 14.2705C10.4381 14.2605 10.4193 14.2605 10.4088 14.2705C10.3977 14.2835 10.3977 14.3008 10.4088 14.3108L11.0461 14.9481C11.0562 14.9603 11.0748 14.9603 11.0854 14.9481C11.0965 14.938 11.0965 14.9209 11.0854 14.9077L11.0798 14.9037L11.2215 14.7495C11.2195 14.7442 11.2512 14.7764 11.2785 14.7483Z" fill="#F5E600"/>
<path d="M10.6226 14.2421C10.6352 14.2361 10.6443 14.2361 10.6503 14.2421C10.6569 14.2481 10.6569 14.2583 10.6503 14.2703C10.6463 14.2803 10.6393 14.2865 10.6393 14.2865L10.601 14.3248L10.5682 14.2925L10.6061 14.2543C10.6059 14.2542 10.6134 14.2461 10.6226 14.2421Z" fill="black"/>
<path d="M11.0797 14.6999C11.0923 14.6918 11.1014 14.6918 11.108 14.6999C11.114 14.7059 11.114 14.716 11.108 14.7281C11.1024 14.7362 11.0964 14.7443 11.0964 14.7443L11.058 14.7826L11.0253 14.7484L11.0635 14.7121C11.0635 14.712 11.0706 14.7039 11.0797 14.6999Z" fill="black"/>
<path d="M10.9377 14.3833C10.9518 14.3752 10.9624 14.3752 10.9695 14.3813C10.976 14.3873 10.975 14.3995 10.9664 14.4136C10.9604 14.4237 10.9518 14.4317 10.9518 14.4317L10.9074 14.4781L10.8737 14.4439L10.919 14.3995C10.919 14.3995 10.9271 14.3893 10.9377 14.3833Z" fill="black"/>
<path d="M10.7546 15.2646L10.9538 15.0105C10.976 15.0266 11.0087 15.0266 11.0294 15.0064C11.0374 14.9984 11.042 14.9883 11.045 14.9783C11.0647 14.9842 11.0874 14.9802 11.1026 14.9641C11.1242 14.944 11.1242 14.9097 11.1061 14.8895L11.2226 14.7604C11.2403 14.7726 11.267 14.7786 11.2896 14.7564L11.3713 14.6757L11.3013 14.6052L11.265 14.6415L11.2504 14.6274L11.2857 14.591L11.2146 14.5205L11.1793 14.5568L11.1647 14.5407L11.1999 14.5064L11.1309 14.4359L11.0493 14.5166C11.0265 14.5388 11.0336 14.567 11.0452 14.5832L10.9182 14.7001L10.8778 14.6598L11.1289 14.3977C11.146 14.4077 11.1743 14.4158 11.197 14.3936L11.2786 14.3109L11.208 14.2423L11.1733 14.2787L11.1577 14.2625L11.194 14.2282L11.1223 14.1577L11.0875 14.192L11.0729 14.1779L11.1092 14.1415L11.0386 14.071L10.9575 14.1537C10.9348 14.1759 10.9419 14.2041 10.9529 14.2203L10.6908 14.4723L10.6494 14.432L10.7664 14.3049C10.784 14.315 10.8107 14.323 10.8334 14.2989L10.9151 14.2182L10.8445 14.1476L10.8087 14.1839L10.7941 14.1698L10.8295 14.1356L10.7578 14.063L10.7231 14.0993L10.7085 14.0852L10.7448 14.0489L10.6746 13.9783L10.593 14.059C10.5703 14.0832 10.5774 14.1095 10.588 14.1276L10.4609 14.2435C10.4392 14.2244 10.4059 14.2244 10.3853 14.2455C10.3697 14.2626 10.3646 14.2838 10.3717 14.305C10.3616 14.307 10.3511 14.3131 10.344 14.3212C10.3233 14.3413 10.3223 14.3736 10.3399 14.3958L10.0858 14.5944C10.0642 14.5732 10.0293 14.5732 10.0077 14.5964C9.98606 14.6176 9.98606 14.6538 10.0077 14.675L10.6736 15.3416C10.6948 15.3627 10.7311 15.3627 10.7538 15.3416C10.7753 15.321 10.7753 15.2868 10.7546 15.2646ZM10.6028 14.7544L10.6009 14.7503L10.5968 14.7463C10.4707 14.6918 10.3507 14.7907 10.316 14.8229L10.2706 14.7765C10.31 14.7402 10.4648 14.6152 10.6422 14.6958L10.6549 14.71C10.737 14.8894 10.6115 15.0407 10.5742 15.0811L10.5278 15.0347C10.5595 15.0004 10.6578 14.8793 10.6028 14.7544ZM10.5061 15.0145L10.3347 14.843C10.3674 14.8148 10.4728 14.7281 10.5781 14.7705C10.6205 14.8773 10.5358 14.9821 10.5061 15.0145ZM10.5948 14.6514C10.4264 14.6091 10.2872 14.722 10.249 14.7593L10.1063 14.6151L10.3604 14.4165L10.5948 14.6514ZM10.5927 15.1012C10.6286 15.0628 10.7415 14.9237 10.7001 14.7543L10.9345 14.9902L10.7359 15.2443L10.5927 15.1012ZM11.0707 14.5365L11.1327 14.476L11.1624 14.5053L11.1266 14.5395L11.181 14.594L11.2163 14.5607L11.248 14.59L11.2118 14.6263L11.2667 14.6807L11.303 14.6455L11.3327 14.6747L11.2707 14.7362C11.2556 14.7524 11.2339 14.7342 11.2314 14.7321L11.2294 14.7302L11.0757 14.5749C11.0728 14.5728 11.0541 14.5527 11.0707 14.5365ZM11.0874 14.8672L10.9397 14.72L11.0657 14.6051L11.2028 14.7422L11.0874 14.8672ZM10.9769 14.1736L11.0385 14.111L11.0687 14.1412L11.0324 14.1776L11.0874 14.232L11.1222 14.1977L11.1534 14.2281L11.1181 14.2623L11.1731 14.3168L11.2078 14.2804L11.2381 14.3108L11.1771 14.3733C11.1604 14.3895 11.1398 14.3713 11.1377 14.3692L11.1276 14.3592L10.987 14.2201L10.9809 14.212C10.98 14.2098 10.9613 14.1896 10.9769 14.1736ZM10.8589 14.6393L10.7102 14.49L10.9704 14.242L11.108 14.3792L10.8589 14.6393ZM10.6144 14.0787L10.6754 14.0182L10.7052 14.0485L10.6689 14.0848L10.7239 14.1393L10.7586 14.103L10.7899 14.1353L10.7546 14.1695L10.8096 14.2239L10.8454 14.1876L10.8757 14.218L10.8136 14.2804C10.797 14.2946 10.7763 14.2765 10.7743 14.2745L10.7723 14.2725L10.6196 14.1192C10.6165 14.1171 10.5978 14.0949 10.6144 14.0787ZM10.6295 14.4115L10.4813 14.2622L10.6068 14.1473L10.7444 14.2844L10.6295 14.4115ZM10.4057 14.2663C10.4148 14.2582 10.4284 14.2562 10.44 14.2622C10.442 14.2642 10.444 14.2642 10.4451 14.2663L11.0818 14.9035C11.0934 14.9157 11.0934 14.9328 11.0818 14.9439C11.0717 14.9561 11.0531 14.9561 11.0429 14.9439L10.4057 14.3066C10.3941 14.2966 10.3941 14.2784 10.4057 14.2663ZM10.3644 14.3409C10.3715 14.3328 10.383 14.3308 10.3921 14.3328L11.0157 14.958C11.0193 14.966 11.0168 14.9781 11.0097 14.9861C10.9996 14.9962 10.9809 14.9962 10.9693 14.9861L10.3643 14.3781C10.3533 14.3692 10.3533 14.351 10.3644 14.3409ZM10.6936 15.3231L10.0276 14.6555C10.0175 14.6455 10.0175 14.6283 10.0276 14.6172C10.0392 14.6051 10.0568 14.6051 10.068 14.6172L10.7339 15.2838C10.7445 15.2948 10.7445 15.3119 10.7339 15.3241C10.7228 15.3331 10.7052 15.3331 10.6936 15.3231Z" fill="black"/>
<path d="M8.29431 10.237V10.8677C8.29431 10.8687 8.29734 10.9866 8.35228 11.1021C8.42641 11.2559 8.5535 11.3355 8.73096 11.3355C8.90842 11.3355 9.03542 11.2568 9.11007 11.1021C9.1645 10.9877 9.16804 10.8686 9.16804 10.8677V10.237H8.29431ZM8.49441 10.3918C8.54184 10.3918 8.58115 10.4301 8.58115 10.4785C8.58115 10.5258 8.54184 10.5651 8.49441 10.5651C8.44706 10.5651 8.40775 10.5258 8.40775 10.4785C8.40775 10.4301 8.44706 10.3918 8.49441 10.3918ZM8.49441 11.0361C8.44706 11.0361 8.40775 10.9977 8.40775 10.9493C8.40775 10.902 8.44706 10.8627 8.49441 10.8627C8.54184 10.8627 8.58115 10.902 8.58115 10.9493C8.58115 10.9978 8.54287 11.0361 8.49441 11.0361ZM8.73087 10.8017C8.68344 10.8017 8.64413 10.7623 8.64413 10.7149C8.64413 10.6665 8.68344 10.6282 8.73087 10.6282C8.77822 10.6282 8.81753 10.6665 8.81753 10.7149C8.81762 10.7613 8.7783 10.8017 8.73087 10.8017ZM8.9663 10.3918C9.01365 10.3918 9.05296 10.4301 9.05296 10.4785C9.05296 10.5258 9.01365 10.5651 8.9663 10.5651C8.91887 10.5651 8.87956 10.5258 8.87956 10.4785C8.87956 10.4301 8.91896 10.3918 8.9663 10.3918ZM8.9663 11.0371C8.91887 11.0371 8.87956 10.9977 8.87956 10.9504C8.87956 10.902 8.91887 10.8637 8.9663 10.8637C9.01365 10.8637 9.05296 10.902 9.05296 10.9504C9.05305 10.9978 9.01469 11.0371 8.9663 11.0371Z" fill="#153A8D"/>
<path d="M8.29431 13.2317V13.8649C8.29431 13.8649 8.29734 13.9819 8.35228 14.0988C8.42641 14.2521 8.5535 14.3317 8.73096 14.3317C8.90842 14.3317 9.03542 14.2542 9.11007 14.0988C9.1645 13.9829 9.16804 13.8649 9.16804 13.863V13.2317H8.29431ZM8.49441 13.387C8.54184 13.387 8.58115 13.4273 8.58115 13.4737C8.58115 13.5221 8.54184 13.5605 8.49441 13.5605C8.44706 13.5605 8.40775 13.5221 8.40775 13.4737C8.40775 13.4273 8.44706 13.387 8.49441 13.387ZM8.49441 14.0324C8.44706 14.0324 8.40775 13.994 8.40775 13.9456C8.40775 13.8992 8.44706 13.8589 8.49441 13.8589C8.54184 13.8589 8.58115 13.8992 8.58115 13.9456C8.58115 13.994 8.54287 14.0324 8.49441 14.0324ZM8.73087 13.7964C8.68344 13.7964 8.64413 13.7582 8.64413 13.7097C8.64413 13.6633 8.68344 13.6229 8.73087 13.6229C8.77822 13.6229 8.81753 13.6633 8.81753 13.7097C8.81762 13.7581 8.7783 13.7964 8.73087 13.7964ZM8.9663 13.387C9.01365 13.387 9.05296 13.4273 9.05296 13.4737C9.05296 13.5221 9.01365 13.5605 8.9663 13.5605C8.91887 13.5605 8.87956 13.5221 8.87956 13.4737C8.87956 13.4273 8.91896 13.387 8.9663 13.387ZM8.9663 14.0324C8.91887 14.0324 8.87956 13.994 8.87956 13.9456C8.87956 13.8992 8.91887 13.8589 8.9663 13.8589C9.01365 13.8589 9.05296 13.8992 9.05296 13.9456C9.05305 13.994 9.01469 14.0324 8.9663 14.0324Z" fill="#153A8D"/>
<path d="M8.29431 11.7348V12.3667C8.29431 12.3667 8.29734 12.4836 8.35228 12.6016C8.42641 12.7539 8.5535 12.8345 8.73096 12.8345C8.90842 12.8345 9.03542 12.7559 9.11007 12.6016C9.1645 12.4846 9.16804 12.3667 9.16804 12.3667V11.7348H8.29431ZM8.49441 11.8902C8.54184 11.8902 8.58115 11.928 8.58115 11.9768C8.58115 12.0242 8.54184 12.0636 8.49441 12.0636C8.44706 12.0636 8.40775 12.0242 8.40775 11.9768C8.40775 11.9279 8.44706 11.8902 8.49441 11.8902ZM8.49441 12.534C8.44706 12.534 8.40775 12.4956 8.40775 12.4473C8.40775 12.4009 8.44706 12.3605 8.49441 12.3605C8.54184 12.3605 8.58115 12.4009 8.58115 12.4473C8.58115 12.4956 8.54287 12.534 8.49441 12.534ZM8.73087 12.3C8.68344 12.3 8.64413 12.2597 8.64413 12.2112C8.64413 12.1648 8.68344 12.125 8.73087 12.125C8.77822 12.125 8.81753 12.1648 8.81753 12.2112C8.81762 12.2597 8.7783 12.3 8.73087 12.3ZM8.9663 11.8902C9.01365 11.8902 9.05296 11.928 9.05296 11.9768C9.05296 12.0242 9.01365 12.0636 8.9663 12.0636C8.91887 12.0636 8.87956 12.0242 8.87956 11.9768C8.87956 11.9279 8.91896 11.8902 8.9663 11.8902ZM8.9663 12.534C8.91887 12.534 8.87956 12.4956 8.87956 12.4473C8.87956 12.4009 8.91887 12.3605 8.9663 12.3605C9.01365 12.3605 9.05296 12.4009 9.05296 12.4473C9.05305 12.4956 9.01469 12.534 8.9663 12.534Z" fill="#153A8D"/>
<path d="M7.06958 11.7348V12.3667C7.06958 12.3667 7.0726 12.4836 7.12859 12.6016C7.20263 12.7539 7.32972 12.8345 7.50718 12.8345C7.68515 12.8345 7.81173 12.7559 7.88637 12.6016C7.94227 12.4846 7.94538 12.3667 7.94538 12.3667V11.7348H7.06958ZM7.2708 11.8902C7.31866 11.8902 7.35745 11.928 7.35745 11.9768C7.35745 12.0242 7.31866 12.0636 7.2708 12.0636C7.22337 12.0636 7.18406 12.0242 7.18406 11.9768C7.18406 11.9279 7.22337 11.8902 7.2708 11.8902ZM7.2708 12.534C7.22337 12.534 7.18406 12.4956 7.18406 12.4473C7.18406 12.4009 7.22337 12.3605 7.2708 12.3605C7.31866 12.3605 7.35745 12.4009 7.35745 12.4473C7.35745 12.4956 7.3197 12.534 7.2708 12.534ZM7.50718 12.3C7.4588 12.3 7.42052 12.2597 7.42052 12.2112C7.42052 12.1648 7.4588 12.125 7.50718 12.125C7.55461 12.125 7.59392 12.1648 7.59392 12.2112C7.59392 12.2597 7.55461 12.3 7.50718 12.3ZM7.7427 11.8902C7.79004 11.8902 7.8284 11.928 7.8284 11.9768C7.8284 12.0242 7.79013 12.0636 7.7427 12.0636C7.69423 12.0636 7.65595 12.0242 7.65595 11.9768C7.65595 11.9279 7.69423 11.8902 7.7427 11.8902ZM7.7427 12.534C7.69423 12.534 7.65595 12.4956 7.65595 12.4473C7.65595 12.4009 7.69423 12.3605 7.7427 12.3605C7.79004 12.3605 7.8284 12.4009 7.8284 12.4473C7.82935 12.4956 7.7916 12.534 7.7427 12.534Z" fill="#153A8D"/>
<path d="M9.51782 11.7348V12.3667C9.51782 12.3667 9.51981 12.4836 9.57631 12.6016C9.65096 12.7539 9.77796 12.8345 9.95542 12.8345C10.1329 12.8345 10.26 12.7559 10.3346 12.6016C10.389 12.4846 10.3931 12.3667 10.3931 12.3667V11.7348H9.51782ZM9.71904 11.8902C9.76639 11.8902 9.80474 11.928 9.80474 11.9768C9.80474 12.0242 9.76647 12.0636 9.71904 12.0636C9.67057 12.0636 9.6323 12.0242 9.6323 11.9768C9.63126 11.9279 9.67057 11.8902 9.71904 11.8902ZM9.71904 12.534C9.67057 12.534 9.6323 12.4956 9.6323 12.4473C9.6323 12.4009 9.67057 12.3605 9.71904 12.3605C9.76639 12.3605 9.8057 12.4009 9.8057 12.4473C9.8057 12.4956 9.76639 12.534 9.71904 12.534ZM9.95438 12.3C9.90704 12.3 9.86773 12.2597 9.86773 12.2112C9.86773 12.1648 9.90704 12.125 9.95438 12.125C10.0029 12.125 10.0411 12.1648 10.0411 12.2112C10.0411 12.2597 10.0029 12.3 9.95438 12.3ZM10.1899 11.8902C10.2372 11.8902 10.2766 11.928 10.2766 11.9768C10.2766 12.0242 10.2372 12.0636 10.1899 12.0636C10.1425 12.0636 10.1032 12.0242 10.1032 11.9768C10.1042 11.9279 10.1425 11.8902 10.1899 11.8902ZM10.1899 12.534C10.1425 12.534 10.1032 12.4956 10.1032 12.4473C10.1032 12.4009 10.1425 12.3605 10.1899 12.3605C10.2372 12.3605 10.2766 12.4009 10.2766 12.4473C10.2766 12.4956 10.2372 12.534 10.1899 12.534Z" fill="#153A8D"/>
</g>
</g>
<defs>
<clipPath id="clip0_8672_1064">
<rect width="24" height="24" fill="white"/>
</clipPath>
</defs>
</svg>
