<svg width="24" height="24" viewBox="0 0 24 24" fill="none" xmlns="http://www.w3.org/2000/svg">
<g clip-path="url(#clip0_8672_1280)">
<path d="M12 24C18.6274 24 24 18.6274 24 12C24 5.37258 18.6274 0 12 0C5.37258 0 0 5.37258 0 12C0 18.6274 5.37258 24 12 24Z" fill="#EE1C25"/>
<path d="M18.4088 13.8944L17.2304 13.8752L16.8472 12.7616L16.4648 13.8752L15.2864 13.8952L16.228 14.6024L15.8832 15.728L16.848 15.052L17.8128 15.728L17.4672 14.6024L18.4088 13.8944Z" fill="#FFFF00"/>
<path d="M14.0872 8.58161L14.1064 7.4032L15.22 7.02L14.1064 6.6368L14.0864 5.4584L13.3792 6.4L12.2528 6.056L12.9296 7.0208L12.2528 7.98561L13.3792 7.6392L14.0872 8.58161Z" fill="#FFFF00"/>
<path d="M14.0872 18.5416L14.1064 17.3632L15.22 16.98L14.1064 16.5968L14.0864 15.4184L13.3792 16.36L12.2528 16.016L12.9296 16.9808L12.2528 17.9456L13.3792 17.5992L14.0872 18.5416Z" fill="#FFFF00"/>
<path d="M17.3224 10.0296L17.8392 8.97121L16.7808 9.48801L15.9336 8.66881L16.0992 9.83441L15.0592 10.3872L16.22 10.5912L16.424 11.752L16.9752 10.7112L18.1416 10.876L17.3224 10.0296Z" fill="#FFFF00"/>
<path d="M10.8088 10.5712L7.63204 10.5184L6.59924 7.5168L5.56724 10.5192L2.39124 10.5728L4.92964 12.4808L4.00004 15.5168L6.60084 13.6936L9.20244 15.5152L8.27124 12.48L10.8088 10.5712Z" fill="#FFFF00"/>
</g>
<defs>
<clipPath id="clip0_8672_1280">
<rect width="24" height="24" fill="white"/>
</clipPath>
</defs>
</svg>
